<svg xmlns="http://www.w3.org/2000/svg" width="1440" height="674" fill="none"><g clip-path="url(#a)" opacity=".1"><path fill="#7DABD4" d="m1418.58 33.507 19.48 33.358h-38.32l-19.65-33.62L1399.1.179l19.48 33.33Z"/><path fill="#96BBDD" d="m1418.23 99.899 18.69 32.017h-36.77l-18.87-32.268 18.25-31.738 18.7 31.989Z"/><path fill="#E3EDF6" d="m1417.87 166.29 17.91 30.676h-35.23l-18.08-30.916 17.49-30.409 17.91 30.649Z"/><path fill="#F2F7FB" d="m1417.53 232.682 17.13 29.335h-33.7l-17.28-29.565 16.72-29.079 17.13 29.309Z"/><path fill="#085FAE" d="m1417.17 299.088 16.35 27.994h-32.16l-16.49-28.213 15.96-27.75 16.34 27.969Z"/><path fill="#8AB3D8" d="m1416.72 365.312 15.66 26.821h-30.81l-15.8-27.031 15.29-26.587 15.66 26.797Z"/><path fill="#2B76B9" d="m1416.36 431.704 14.88 25.479h-29.27l-15.01-25.679 14.52-25.258 14.88 25.458Z"/><path fill="#E0EBF5" d="m1416.02 498.095 14.09 24.139h-27.72l-14.22-24.328 13.75-23.928 14.1 24.117Z"/><path fill="#4083C0" d="m1415.66 564.487 13.31 22.797h-26.18l-13.43-22.976 12.99-22.599 13.31 22.778Z"/><path fill="#91B8DB" d="m1415.31 630.893 12.52 21.456h-24.64l-12.64-21.624 12.23-21.27 12.53 21.438Z"/><path fill="#7DABD4" d="m1352.92 33.507 19.47 33.358h-38.31l-19.65-33.62L1333.44.179l19.48 33.33Z"/><path fill="#D6E5F2" d="m1352.56 99.899 18.7 32.017h-36.78l-18.86-32.268 18.25-31.738 18.69 31.989Z"/><path fill="#73A4D1" d="m1352.22 166.29 17.91 30.676h-35.23l-18.08-30.916 17.49-30.409 17.91 30.649Z"/><path fill="#ADCAE4" d="m1351.86 232.682 17.13 29.335h-33.69l-17.29-29.565 16.72-29.079 17.13 29.309Z"/><path fill="#C4D9EC" d="m1351.51 299.088 16.34 27.994h-32.15l-16.49-28.213 15.95-27.75 16.35 27.969Z"/><path fill="#E3EDF6" d="m1351.05 365.312 15.66 26.821h-30.8l-15.81-27.031 15.29-26.587 15.66 26.797Z"/><path fill="#4F8DC5" d="m1350.69 431.704 14.88 25.479h-29.26l-15.01-25.679 14.52-25.258 14.87 25.458Z"/><path fill="#6EA1CF" d="m1350.35 498.095 14.1 24.139h-27.73l-14.22-24.328 13.76-23.928 14.09 24.117Z"/><path fill="#0F64B0" d="m1350 564.487 13.31 22.797h-26.19l-13.43-22.976 13-22.599 13.31 22.778Z"/><path fill="#EBF2F8" d="m1349.64 630.893 12.53 21.456h-24.65l-12.64-21.624 12.23-21.27 12.53 21.438Z"/><path fill="#639ACC" d="m1287.25 33.507 19.48 33.358h-38.32l-19.65-33.62L1267.77.179l19.48 33.33Z"/><path fill="#F2F7FB" d="m1286.9 99.899 18.69 32.017h-36.78l-18.86-32.268 18.25-31.738 18.7 31.989Z"/><path fill="#FCFDFE" d="m1286.55 166.29 17.91 30.676h-35.23l-18.07-30.916 17.48-30.409 17.91 30.649Z"/><path fill="#3D82BF" d="m1286.2 232.682 17.13 29.335h-33.7l-17.28-29.565 16.72-29.079 17.13 29.309Z"/><path fill="#A1C2E0" d="m1285.84 299.088 16.35 27.994h-32.16l-16.49-28.213 15.95-27.75 16.35 27.969Z"/><path fill="#B8D1E7" d="m1285.39 365.312 15.66 26.821h-30.81l-15.8-27.031 15.29-26.587 15.66 26.797Z"/><path fill="#1F6EB5" d="m1285.04 431.704 14.88 25.479h-29.26l-15.02-25.679 14.53-25.258 14.87 25.458Z"/><path fill="#B8D1E7" d="m1284.69 498.095 14.09 24.139h-27.72l-14.22-24.328 13.75-23.928 14.1 24.117Z"/><path fill="#DBE8F3" d="m1284.33 564.487 13.31 22.797h-26.18l-13.43-22.976 12.99-22.599 13.31 22.778Z"/><path fill="#3079BB" d="m1283.97 630.893 12.53 21.456h-24.64l-12.64-21.624 12.23-21.27 12.52 21.438Z"/><path fill="#1C6CB4" d="m1221.59 33.507 19.47 33.358h-38.31l-19.65-33.62L1202.11.179l19.48 33.33Z"/><path fill="#75A6D2" d="m1221.24 99.899 18.7 32.017h-36.78l-18.86-32.268 18.25-31.738 18.69 31.989Z"/><path fill="#367DBD" d="m1220.89 166.29 17.91 30.676h-35.24l-18.07-30.916 17.49-30.409 17.91 30.649Z"/><path fill="#70A3D0" d="m1220.53 232.682 17.13 29.335h-33.69l-17.29-29.565 16.72-29.079 17.13 29.309Z"/><path fill="#0A61AE" d="m1220.18 299.088 16.34 27.994h-32.15l-16.5-28.213 15.96-27.75 16.35 27.969Z"/><path fill="#ADCAE4" d="m1219.74 365.312 15.66 26.821h-30.81l-15.8-27.031 15.28-26.587 15.67 26.797Z"/><path fill="#E0EBF5" d="m1219.38 431.704 14.88 25.479h-29.27l-15.01-25.679 14.52-25.258 14.88 25.458Z"/><path fill="#1A6BB3" d="m1219.02 498.095 14.1 24.139h-27.73l-14.22-24.328 13.76-23.928 14.09 24.117Z"/><path fill="#8FB6DA" d="m1218.67 564.487 13.31 22.797h-26.19l-13.43-22.976 12.99-22.599 13.32 22.778Z"/><path fill="#EBF2F8" d="m1218.31 630.893 12.53 21.456h-24.65l-12.64-21.624 12.23-21.27 12.53 21.438Z"/><path fill="#367DBD" d="m1155.94 33.507 19.47 33.358h-38.31l-19.65-33.62L1136.46.179l19.48 33.33Z"/><path fill="#CCDEEE" d="m1155.58 99.899 18.69 32.017h-36.77l-18.86-32.268 18.24-31.738 18.7 31.989Z"/><path fill="#9CBFDE" d="m1155.22 166.29 17.91 30.676h-35.23l-18.07-30.916 17.48-30.409 17.91 30.649Z"/><path fill="#ADCAE4" d="m1154.87 232.682 17.12 29.335h-33.69l-17.28-29.565 16.72-29.079 17.13 29.309Z"/><path fill="#337BBC" d="m1154.51 299.088 16.35 27.994h-32.16l-16.49-28.213 15.95-27.75 16.35 27.969Z"/><path fill="#DBE8F3" d="m1154.07 365.312 15.66 26.821h-30.81l-15.8-27.031 15.29-26.587 15.66 26.797Z"/><path fill="#055DAD" d="m1153.71 431.704 14.88 25.479h-29.27l-15.01-25.679 14.53-25.258 14.87 25.458Z"/><path fill="#2471B7" d="m1153.36 498.095 14.09 24.139h-27.72l-14.22-24.328 13.75-23.928 14.1 24.117Z"/><path fill="#78A8D2" d="m1153 564.487 13.31 22.797h-26.18l-13.43-22.976 12.99-22.599 13.31 22.778Z"/><path fill="#B8D1E7" d="m1152.66 630.893 12.53 21.456h-24.65l-12.64-21.624 12.23-21.27 12.53 21.438Z"/><path fill="#3079BB" d="m1090.27 33.507 19.48 33.358h-38.32l-19.65-33.62L1070.79.179l19.48 33.33Z"/><path fill="#A3C4E1" d="m1089.91 99.899 18.7 32.017h-36.78l-18.86-32.268 18.25-31.738 18.69 31.989Z"/><path fill="#94BADC" d="m1089.56 166.29 17.91 30.676h-35.24l-18.07-30.916 17.49-30.409 17.91 30.649Z"/><path fill="#F2F7FB" d="m1089.2 232.682 17.13 29.335h-33.7l-17.28-29.565 16.72-29.079 17.13 29.309Z"/><path fill="#94BADC" d="m1088.86 299.088 16.34 27.994h-32.15l-16.49-28.213 15.95-27.75 16.35 27.969Z"/><path fill="#1F6EB5" d="m1088.4 365.312 15.66 26.821h-30.8l-15.8-27.031 15.28-26.587 15.66 26.797Z"/><path fill="#8AB3D8" d="m1088.05 431.704 14.88 25.479h-29.27l-15.01-25.679 14.52-25.258 14.88 25.458Z"/><path fill="#035CAC" d="m1087.69 498.095 14.1 24.139h-27.73l-14.22-24.328 13.76-23.928 14.09 24.117Z"/><path fill="#2974B8" d="m1087.34 564.487 13.31 22.797h-26.19l-13.43-22.976 12.99-22.599 13.32 22.778Z"/><path fill="#EDF3F9" d="m1086.99 630.893 12.53 21.456h-24.64l-12.64-21.624 12.23-21.27 12.52 21.438Z"/><path fill="#CFE0EF" d="m1024.6 33.507 19.48 33.358h-38.31l-19.655-33.62L1005.13.179l19.47 33.33Z"/><path fill="#B8D1E7" d="m1024.25 99.899 18.69 32.017h-36.77l-18.864-32.268 18.244-31.738 18.7 31.989Z"/><path fill="#75A6D2" d="m1023.89 166.29 17.91 30.676h-35.23l-18.073-30.916 17.483-30.409 17.91 30.649Z"/><path fill="#EDF3F9" d="m1023.54 232.682 17.12 29.335h-33.69l-17.283-29.565 16.723-29.079 17.13 29.309Z"/><path fill="#BAD2E8" d="m1023.19 299.088 16.35 27.994h-32.16l-16.487-28.213 15.957-27.75 16.34 27.969Z"/><path fill="#70A3D0" d="m1022.74 365.312 15.66 26.821h-30.81l-15.797-27.031 15.287-26.587 15.66 26.797Z"/><path fill="#E8F0F7" d="m1022.38 431.704 14.88 25.479h-29.27l-15.007-25.679 14.527-25.258 14.87 25.458Z"/><path fill="#2471B7" d="m1022.03 498.095 14.09 24.139h-27.73l-14.216-24.328 13.756-23.928 14.1 24.117Z"/><path fill="#0A61AE" d="m1021.68 564.487 13.32 22.797h-26.19l-13.43-22.976 12.99-22.599 13.31 22.778Z"/><path fill="#4285C1" d="m1021.33 630.893 12.53 21.456h-24.65l-12.639-21.624 12.229-21.27 12.53 21.438Z"/><path fill="#C7DBED" d="m958.939 33.507 19.478 33.358h-38.316l-19.651-33.62L939.462.179l19.477 33.33Z"/><path fill="#4587C2" d="m958.583 99.899 18.695 32.017h-36.776L921.64 99.648l18.248-31.738 18.695 31.989Z"/><path fill="#0F64B0" d="m958.227 166.29 17.911 30.676h-35.235l-18.072-30.916 17.484-30.409 17.912 30.649Z"/><path fill="#E6EFF7" d="m957.885 232.682 17.128 29.335h-33.694l-17.282-29.565 16.719-29.079 17.129 29.309Z"/><path fill="#0D62AF" d="m957.528 299.088 16.346 27.994h-32.155l-16.491-28.213 15.955-27.75 16.345 27.969Z"/><path fill="#528FC6" d="m957.074 365.312 15.66 26.821h-30.806l-15.801-27.031 15.287-26.587 15.66 26.797Z"/><path fill="#E8F0F7" d="m956.717 431.704 14.878 25.479h-29.266l-15.011-25.679 14.522-25.258 14.877 25.458Z"/><path fill="#055DAD" d="m956.361 498.095 14.094 24.139h-27.726l-14.22-24.328 13.758-23.928 14.094 24.117Z"/><path fill="#7AA9D3" d="m956.019 564.487 13.311 22.797h-26.185l-13.431-22.976 12.994-22.599 13.311 22.778Z"/><path fill="#055DAD" d="m955.663 630.893 12.528 21.456h-24.645l-12.641-21.624 12.229-21.27 12.529 21.438Z"/><path fill="#9EC0DF" d="m893.274 33.507 19.478 33.358h-38.316l-19.652-33.62L873.797.179l19.477 33.33Z"/><path fill="#82AED6" d="m892.918 99.899 18.694 32.017h-36.775l-18.862-32.268 18.248-31.738 18.695 31.989Z"/><path fill="#4788C3" d="m892.561 166.29 17.912 30.676h-35.235l-18.072-30.916 17.484-30.409 17.911 30.649Z"/><path fill="#0F64B0" d="m892.219 232.682 17.129 29.335h-33.695l-17.282-29.565 16.72-29.079 17.128 29.309Z"/><path fill="#BDD4E9" d="m891.863 299.088 16.345 27.994h-32.154l-16.492-28.213 15.955-27.75 16.346 27.969Z"/><path fill="#D6E5F2" d="m891.409 365.312 15.66 26.821h-30.806l-15.801-27.031 15.286-26.587 15.661 26.797Z"/><path fill="#DBE8F3" d="m891.052 431.704 14.877 25.479h-29.266l-15.01-25.679 14.522-25.258 14.877 25.458Z"/><path fill="#035CAC" d="m890.71 498.095 14.095 24.139h-27.726l-14.221-24.328 13.758-23.928 14.094 24.117Z"/><path fill="#367DBD" d="m890.354 564.487 13.311 22.797H877.48l-13.431-22.976 12.994-22.599 13.311 22.778Z"/><path fill="#D9E6F2" d="m889.997 630.893 12.529 21.456h-24.645l-12.641-21.624 12.229-21.27 12.528 21.438Z"/><path fill="#669CCD" d="m827.609 33.507 19.477 33.358h-38.315l-19.652-33.62L808.131.179l19.478 33.33Z"/><path fill="#EBF2F8" d="m827.252 99.899 18.695 32.017h-36.775L790.31 99.648l18.248-31.738 18.694 31.989Z"/><path fill="#A3C4E1" d="m826.911 166.29 17.911 30.676h-35.235l-18.072-30.916 17.484-30.409 17.912 30.649Z"/><path fill="#5490C7" d="m826.554 232.682 17.129 29.335h-33.695l-17.282-29.565 16.72-29.079 17.128 29.309Z"/><path fill="#8CB5D9" d="m826.198 299.088 16.345 27.994h-32.154l-16.492-28.213 15.955-27.75 16.346 27.969Z"/><path fill="#2471B7" d="m825.743 365.312 15.661 26.821h-30.807l-15.8-27.031 15.286-26.587 15.66 26.797Z"/><path fill="#8CB5D9" d="m825.402 431.704 14.877 25.479h-29.266l-15.011-25.679 14.522-25.258 14.878 25.458Z"/><path fill="#5792C8" d="m825.045 498.095 14.094 24.139h-27.726l-14.22-24.328 13.758-23.928 14.094 24.117Z"/><path fill="#5E97CA" d="M824.689 564.487 838 587.284h-26.186l-13.43-22.976 12.993-22.599 13.312 22.778Z"/><path fill="#528FC6" d="m824.332 630.893 12.528 21.456h-24.645l-12.64-21.624 12.229-21.27 12.528 21.438Z"/><path fill="#EBF2F8" d="m761.944 33.507 19.477 33.358h-38.315l-19.652-33.62L742.466.179l19.478 33.33Z"/><path fill="#8CB5D9" d="m761.602 99.899 18.694 32.017h-36.775l-18.862-32.268 18.248-31.738 18.695 31.989Z"/><path fill="#E6EFF7" d="m761.245 166.29 17.912 30.676h-35.235L725.85 166.05l17.484-30.409 17.911 30.649Z"/><path fill="#E3EDF6" d="m760.889 232.682 17.128 29.335h-33.694l-17.282-29.565 16.719-29.079 17.129 29.309Z"/><path fill="#BDD4E9" d="m760.532 299.088 16.346 27.994h-32.155l-16.491-28.213 15.955-27.75 16.345 27.969Z"/><path fill="#0D62AF" d="m760.078 365.312 15.66 26.821h-30.806l-15.801-27.031 15.287-26.587 15.66 26.797Z"/><path fill="#E6EFF7" d="m759.736 431.704 14.878 25.479h-29.267l-15.01-25.679 14.522-25.258 14.877 25.458Z"/><path fill="#4285C1" d="m759.38 498.095 14.094 24.139h-27.726l-14.22-24.328 13.757-23.928 14.095 24.117Z"/><path fill="#1C6CB4" d="m759.023 564.487 13.312 22.797h-26.186l-13.43-22.976 12.993-22.599 13.311 22.778Z"/><path fill="#80ADD5" d="m758.667 630.893 12.528 21.456H746.55l-12.641-21.624 12.23-21.27 12.528 21.438Z"/><path fill="#4A8AC3" d="m696.278 33.507 19.478 33.358H677.44l-19.652-33.62L676.801.179l19.477 33.33Z"/><path fill="#87B1D8" d="m695.936 99.899 18.695 32.017h-36.775l-18.862-32.268 18.248-31.738 18.694 31.989Z"/><path fill="#1266B1" d="m695.58 166.29 17.911 30.676h-35.235l-18.071-30.916 17.483-30.409 17.912 30.649Z"/><path fill="#3B80BE" d="m695.223 232.682 17.129 29.335h-33.695l-17.281-29.565 16.719-29.079 17.128 29.309Z"/><path fill="#A1C2E0" d="m694.867 299.088 16.345 27.994h-32.154l-16.492-28.213 15.955-27.75 16.346 27.969Z"/><path fill="#ADCAE4" d="m694.427 365.312 15.661 26.82h-30.807l-15.801-27.03 15.287-26.587 15.66 26.797Z"/><path fill="#D1E1F0" d="m694.071 431.704 14.877 25.479h-29.266l-15.011-25.679 14.522-25.258 14.878 25.458Z"/><path fill="#035CAC" d="m693.714 498.095 14.095 24.139h-27.726l-14.221-24.328 13.758-23.928 14.094 24.117Z"/><path fill="#1C6CB4" d="m693.358 564.487 13.311 22.797h-26.185l-13.431-22.976 12.994-22.599 13.311 22.778Z"/><path fill="#78A8D2" d="m693.001 630.893 12.529 21.456h-24.646l-12.64-21.624 12.229-21.27 12.528 21.438Z"/><path fill="#005AAB" d="m630.627 33.507 19.478 33.358h-38.316l-19.651-33.62L611.15.179l19.477 33.33Zm-.356 66.392 18.695 32.017H612.19l-18.862-32.268 18.248-31.738 18.695 31.989Z"/><path fill="#EDF3F9" d="m629.914 166.29 17.912 30.676h-35.235l-18.072-30.916 17.484-30.409 17.911 30.649Z"/><path fill="#1F6EB5" d="m629.558 232.682 17.129 29.335h-33.695l-17.282-29.565 16.72-29.079 17.128 29.309Z"/><path fill="#C4D9EC" d="m629.202 299.088 16.345 27.994h-32.154l-16.492-28.213 15.955-27.75 16.346 27.969Z"/><path fill="#A3C4E1" d="m628.762 365.312 15.66 26.82h-30.806l-15.801-27.03 15.287-26.587 15.66 26.797Z"/><path fill="#F7FAFC" d="m628.405 431.704 14.878 25.479h-29.266l-15.011-25.679 14.522-25.258 14.877 25.458Z"/><path fill="#E3EDF6" d="m628.049 498.095 14.094 24.139h-27.726l-14.22-24.328 13.758-23.928 14.094 24.117Z"/><path fill="#528FC6" d="m627.693 564.487 13.311 22.797h-26.186l-13.43-22.976 12.993-22.599 13.312 22.778Z"/><path fill="#EDF3F9" d="m627.351 630.893 12.528 21.456h-24.645l-12.641-21.624 12.229-21.27 12.529 21.438Z"/><path fill="#82AED6" d="m564.962 33.507 19.478 33.358h-38.316l-19.652-33.62L545.485.179l19.477 33.33Z"/><path fill="#78A8D2" d="m564.606 99.899 18.694 32.017h-36.775l-18.862-32.268 18.248-31.738 18.695 31.989Z"/><path fill="#80ADD5" d="m564.249 166.29 17.912 30.676h-35.235l-18.072-30.916 17.484-30.409 17.911 30.649Z"/><path fill="#085FAE" d="m563.893 232.682 17.128 29.335h-33.694l-17.282-29.565 16.719-29.079 17.129 29.309Z"/><path fill="#1C6CB4" d="m563.551 299.088 16.345 27.994h-32.154l-16.492-28.213 15.955-27.75 16.346 27.969Z"/><path fill="#70A3D0" d="m563.097 365.312 15.66 26.82H547.95l-15.8-27.03 15.286-26.587 15.661 26.797Z"/><path fill="#E6EFF7" d="m562.74 431.704 14.877 25.479h-29.266l-15.01-25.679 14.522-25.258 14.877 25.458Z"/><path fill="#0D62AF" d="m562.384 498.095 14.094 24.139h-27.726l-14.22-24.328 13.757-23.928 14.095 24.117Z"/><path fill="#1F6EB5" d="m562.027 564.487 13.312 22.797h-26.186l-13.43-22.976 12.993-22.599 13.311 22.778Z"/><path fill="#94BADC" d="m561.685 630.893 12.529 21.456h-24.646l-12.64-21.624 12.229-21.27 12.528 21.438Z"/><path fill="#D4E3F1" d="m499.297 33.507 19.477 33.358h-38.315l-19.652-33.62L479.819.179l19.478 33.33Z"/><path fill="#D9E6F2" d="m498.94 99.899 18.695 32.017H480.86l-18.862-32.268 18.248-31.738 18.694 31.989Z"/><path fill="#C4D9EC" d="m498.584 166.29 17.911 30.676H481.26l-18.072-30.916 17.484-30.409 17.912 30.649Z"/><path fill="#80ADD5" d="m498.227 232.682 17.129 29.335h-33.695l-17.282-29.565 16.72-29.079 17.128 29.309Z"/><path fill="#669CCD" d="m497.885 299.088 16.346 27.994h-32.154l-16.492-28.213 15.955-27.75 16.345 27.969Z"/><path fill="#F2F7FB" d="m497.431 365.312 15.661 26.82h-30.807l-15.801-27.03 15.287-26.587 15.66 26.797Z"/><path fill="#ABC9E3" d="m497.075 431.704 14.877 25.479h-29.266l-15.011-25.679 14.522-25.258 14.878 25.458Z"/><path fill="#5C95C9" d="m496.718 498.095 14.095 24.139h-27.726l-14.221-24.328 13.758-23.928 14.094 24.117Z"/><path fill="#A6C5E2" d="m496.376 564.487 13.312 22.797h-26.186l-13.43-22.976 12.993-22.599 13.311 22.778Z"/><path fill="#94BADC" d="m496.02 630.893 12.528 21.456h-24.645l-12.64-21.624 12.229-21.27 12.528 21.438Z"/><path fill="#9EC0DF" d="m433.631 33.507 19.478 33.358h-38.316l-19.652-33.62L414.154.179l19.477 33.33Z"/><path fill="#1F6EB5" d="m433.275 99.899 18.695 32.017h-36.776l-18.862-32.268L414.58 67.91l18.695 31.989Z"/><path fill="#216FB6" d="m432.919 166.29 17.911 30.676h-35.235l-18.072-30.916 17.484-30.409 17.912 30.649Z"/><path fill="#2B76B9" d="m432.577 232.682 17.128 29.335h-33.694l-17.282-29.565 16.719-29.079 17.129 29.309Z"/><path fill="#216FB6" d="m432.22 299.088 16.346 27.994h-32.155l-16.491-28.213 15.955-27.75 16.345 27.969Z"/><path fill="#B5CFE7" d="m431.766 365.312 15.66 26.82H416.62l-15.801-27.03 15.286-26.587 15.661 26.797Z"/><path fill="#78A8D2" d="m431.409 431.704 14.878 25.479H417.02l-15.01-25.679 14.522-25.258 14.877 25.458Z"/><path fill="#D9E6F2" d="m431.068 498.095 14.094 24.139h-27.726l-14.22-24.328 13.757-23.928 14.095 24.117Z"/><path fill="#9EC0DF" d="m430.711 564.487 13.311 22.797h-26.185l-13.431-22.976 12.994-22.599 13.311 22.778Z"/><path fill="#CCDEEE" d="m430.355 630.893 12.528 21.456h-24.645l-12.641-21.624 12.229-21.27 12.529 21.438Z"/><path fill="#BDD4E9" d="m367.966 33.507 19.478 33.358h-38.316l-19.652-33.62L348.489.179l19.477 33.33Z"/><path fill="#C7DBED" d="m367.61 99.899 18.694 32.017h-36.775l-18.862-32.268 18.248-31.738 18.695 31.989Z"/><path fill="#337BBC" d="m367.268 166.29 17.911 30.676h-35.235l-18.072-30.916 17.484-30.409 17.912 30.649Z"/><path fill="#9EC0DF" d="m366.911 232.682 17.129 29.335h-33.695l-17.282-29.565 16.72-29.079 17.128 29.309Z"/><path fill="#387EBD" d="m366.555 299.088 16.345 27.994h-32.154l-16.492-28.213 15.955-27.75 16.346 27.969Z"/><path fill="#055DAD" d="m366.101 365.312 15.66 26.82h-30.807l-15.8-27.03 15.286-26.587 15.661 26.797Z"/><path fill="#BAD2E8" d="m365.744 431.704 14.877 25.479h-29.266l-15.01-25.679 14.522-25.258 14.877 25.458Z"/><path fill="#4D8CC4" d="m365.402 498.095 14.095 24.139h-27.726l-14.221-24.328 13.758-23.928 14.094 24.117Z"/><path fill="#367DBD" d="m365.046 564.487 13.311 22.797h-26.185l-13.431-22.976 12.993-22.599 13.312 22.778Z"/><path fill="#BAD2E8" d="m364.689 630.893 12.529 21.456h-24.646l-12.64-21.624 12.229-21.27 12.528 21.438Z"/><path fill="#1467B2" d="m302.301 33.507 19.477 33.358h-38.315l-19.652-33.62L282.823.179l19.478 33.33Z"/><path fill="#055DAD" d="m301.944 99.899 18.695 32.017h-36.775l-18.862-32.268L283.25 67.91l18.694 31.989Z"/><path fill="#D6E5F2" d="m301.602 166.29 17.912 30.676h-35.235l-18.072-30.916 17.484-30.409 17.911 30.649Z"/><path fill="#ABC9E3" d="m301.246 232.682 17.128 29.335H284.68l-17.282-29.565 16.719-29.079 17.129 29.309Z"/><path fill="#A6C5E2" d="m300.89 299.088 16.345 27.994h-32.154l-16.492-28.213 15.955-27.75 16.346 27.969Z"/><path fill="#387EBD" d="m300.435 365.312 15.66 26.82h-30.806l-15.801-27.03 15.287-26.587 15.66 26.797Z"/><path fill="#5994C8" d="m300.093 431.704 14.878 25.479h-29.266l-15.011-25.679 14.522-25.258 14.877 25.458Z"/><path fill="#80ADD5" d="m299.737 498.095 14.094 24.139h-27.726l-14.22-24.328 13.758-23.928 14.094 24.117Z"/><path fill="#B5CFE7" d="m299.38 564.487 13.312 22.797h-26.186l-13.43-22.976 12.993-22.599 13.311 22.778Z"/><path fill="#8CB5D9" d="m299.024 630.893 12.528 21.456h-24.645l-12.64-21.624 12.229-21.27 12.528 21.438Z"/><path fill="#D4E3F1" d="m236.635 33.507 19.478 33.358h-38.316l-19.652-33.62L217.158.179l19.477 33.33Z"/><path fill="#75A6D2" d="m236.294 99.899 18.694 32.017h-36.775l-18.862-32.268 18.248-31.738 18.695 31.989Z"/><path fill="#528FC6" d="m235.937 166.29 17.912 30.676h-35.235l-18.072-30.916 17.484-30.409 17.911 30.649Z"/><path fill="#C9DCED" d="m235.581 232.682 17.128 29.335h-33.694l-17.282-29.565 16.719-29.079 17.129 29.309Z"/><path fill="#6EA1CF" d="m235.224 299.088 16.346 27.994h-32.155l-16.492-28.213 15.956-27.75 16.345 27.969Z"/><path fill="#8AB3D8" d="m234.77 365.312 15.66 26.82h-30.806l-15.801-27.03 15.286-26.587 15.661 26.797Z"/><path fill="#0D62AF" d="m234.428 431.704 14.877 25.479h-29.266l-15.01-25.679 14.522-25.258 14.877 25.458Z"/><path fill="#4587C2" d="m234.071 498.095 14.095 24.139H220.44l-14.221-24.328 13.758-23.928 14.094 24.117Z"/><path fill="#D1E1F0" d="m233.715 564.487 13.311 22.797h-26.185l-13.431-22.976 12.994-22.599 13.311 22.778Z"/><path fill="#3079BB" d="m233.359 630.893 12.528 21.456h-24.645l-12.641-21.624 12.229-21.27 12.529 21.438Z"/><path fill="#005AAB" d="m170.97 33.507 19.477 33.358h-38.315l-19.652-33.62L151.492.179l19.478 33.33Z"/><path fill="#B3CEE6" d="m170.628 99.899 18.695 32.017h-36.775l-18.862-32.268 18.248-31.738 18.694 31.989Z"/><path fill="#DBE8F3" d="m170.272 166.29 17.911 30.676h-35.235l-18.072-30.916 17.484-30.409 17.912 30.649Z"/><path fill="#85B0D7" d="m169.915 232.682 17.129 29.335h-33.695l-17.282-29.565 16.72-29.079 17.128 29.309Z"/><path fill="#E6EFF7" d="m169.559 299.088 16.345 27.994H153.75l-16.492-28.213 15.955-27.75 16.346 27.969Z"/><path fill="#96BBDD" d="m169.119 365.312 15.661 26.82h-30.807l-15.801-27.03 15.287-26.587 15.66 26.797Z"/><path fill="#F0F5FA" d="m168.763 431.704 14.877 25.479h-29.266l-15.011-25.679 14.522-25.258 14.878 25.458Z"/><path fill="#82AED6" d="m168.406 498.095 14.094 24.139h-27.725l-14.221-24.328 13.758-23.928 14.094 24.117Z"/><path fill="#216FB6" d="m168.05 564.487 13.311 22.797h-26.186l-13.43-22.976 12.993-22.599 13.312 22.778Z"/><path fill="#1769B3" d="m167.693 630.893 12.529 21.456h-24.646l-12.64-21.624 12.229-21.27 12.528 21.438Z"/><path fill="#367DBD" d="m105.319 33.507 19.478 33.358H86.481L66.83 33.245 85.842.179l19.477 33.33Z"/><path fill="#80ADD5" d="m104.963 99.899 18.694 32.017H86.882L68.02 99.648 86.268 67.91l18.695 31.989Z"/><path fill="#0A61AE" d="m104.606 166.29 17.912 30.676H87.283L69.21 166.05l17.484-30.409 17.911 30.649Z"/><path fill="#F0F5FA" d="m104.25 232.682 17.128 29.335H87.684l-17.282-29.565 16.72-29.079 17.128 29.309Z"/><path fill="#055DAD" d="m103.893 299.088 16.346 27.994H88.085l-16.492-28.213 15.955-27.75 16.345 27.969Z"/><path fill="#9CBFDE" d="m103.454 365.312 15.66 26.82H88.308l-15.8-27.03 15.285-26.587 15.661 26.797Z"/><path fill="#367DBD" d="m103.097 431.704 14.878 25.479H88.709l-15.011-25.679 14.522-25.258 14.877 25.458Z"/><path fill="#1F6EB5" d="m102.741 498.095 14.094 24.139H89.109l-14.22-24.328 13.758-23.928 14.094 24.117Z"/><path fill="#82AED6" d="m102.384 564.487 13.312 22.797H89.51l-13.43-22.976 12.993-22.599 13.311 22.778Z"/><path fill="#7AA9D3" d="m102.043 630.893 12.528 21.456H89.926l-12.64-21.624 12.228-21.27 12.529 21.438Z"/><path fill="#BFD6EA" d="M39.654 33.507 59.13 66.865H20.816L1.164 33.245 20.176.179l19.478 33.33Z"/><path fill="#035CAC" d="m39.297 99.899 18.695 32.017H21.217L2.355 99.648 20.603 67.91l18.694 31.989Z"/><path fill="#3079BB" d="m38.941 166.29 17.911 30.676H21.618L3.546 166.05l17.483-30.409 17.912 30.649Z"/><path fill="#E3EDF6" d="m38.584 232.682 17.129 29.335H22.018L4.737 232.452l16.719-29.079 17.128 29.309Z"/><path fill="#75A6D2" d="m38.243 299.088 16.345 27.994H22.434L5.942 298.869l15.955-27.75 16.346 27.969Z"/><path fill="#ADCAE4" d="m37.788 365.312 15.66 26.82H22.643l-15.8-27.03 15.286-26.587 15.66 26.797Z"/><path fill="#F7FAFC" d="m37.432 431.704 14.877 25.479H23.043l-15.01-25.679 14.522-25.258 14.877 25.458Z"/><path fill="#367DBD" d="m37.075 498.095 14.095 24.139H23.444l-14.22-24.328 13.757-23.928 14.094 24.117Z"/><path fill="#216FB6" d="m36.734 564.487 13.31 22.797H23.86l-13.43-22.976 12.993-22.599 13.312 22.778Z"/><path fill="#1769B3" d="m36.377 630.893 12.529 21.456H24.26l-12.64-21.624 12.229-21.27 12.528 21.438Z"/><path fill="#7DABD4" d="m1418.58 33.507 19.48 33.358h-38.32l-19.65-33.62L1399.1.179l19.48 33.33Z"/><path fill="#96BBDD" d="m1418.23 99.899 18.69 32.017h-36.77l-18.87-32.268 18.25-31.738 18.7 31.989Z"/><path fill="#E3EDF6" d="m1417.87 166.29 17.91 30.676h-35.23l-18.08-30.916 17.49-30.409 17.91 30.649Z"/><path fill="#F2F7FB" d="m1417.53 232.682 17.13 29.335h-33.7l-17.28-29.565 16.72-29.079 17.13 29.309Z"/><path fill="#085FAE" d="m1417.17 299.088 16.35 27.994h-32.16l-16.49-28.213 15.96-27.75 16.34 27.969Z"/><path fill="#8AB3D8" d="m1416.72 365.312 15.66 26.821h-30.81l-15.8-27.031 15.29-26.587 15.66 26.797Z"/><path fill="#2B76B9" d="m1416.36 431.704 14.88 25.479h-29.27l-15.01-25.679 14.52-25.258 14.88 25.458Z"/><path fill="#E0EBF5" d="m1416.02 498.095 14.09 24.139h-27.72l-14.22-24.328 13.75-23.928 14.1 24.117Z"/><path fill="#4083C0" d="m1415.66 564.487 13.31 22.797h-26.18l-13.43-22.976 12.99-22.599 13.31 22.778Z"/><path fill="#91B8DB" d="m1415.31 630.893 12.52 21.456h-24.64l-12.64-21.624 12.23-21.269 12.53 21.437Z"/><path fill="#7DABD4" d="m1352.92 33.507 19.47 33.358h-38.31l-19.65-33.62L1333.44.179l19.48 33.33Z"/><path fill="#D6E5F2" d="m1352.56 99.899 18.7 32.017h-36.78l-18.86-32.268 18.25-31.738 18.69 31.989Z"/><path fill="#73A4D1" d="m1352.22 166.29 17.91 30.676h-35.23l-18.08-30.916 17.49-30.409 17.91 30.649Z"/><path fill="#ADCAE4" d="m1351.86 232.682 17.13 29.335h-33.69l-17.29-29.565 16.72-29.079 17.13 29.309Z"/><path fill="#C4D9EC" d="m1351.51 299.088 16.34 27.994h-32.15l-16.5-28.213 15.96-27.75 16.35 27.969Z"/><path fill="#E3EDF6" d="m1351.05 365.312 15.66 26.821h-30.8l-15.81-27.031 15.29-26.587 15.66 26.797Z"/><path fill="#4F8DC5" d="m1350.69 431.704 14.88 25.479h-29.26l-15.01-25.679 14.52-25.258 14.87 25.458Z"/><path fill="#6EA1CF" d="m1350.35 498.095 14.1 24.139h-27.73l-14.22-24.328 13.76-23.928 14.09 24.117Z"/><path fill="#0F64B0" d="m1350 564.487 13.31 22.797h-26.19l-13.43-22.976 13-22.599 13.31 22.778Z"/><path fill="#EBF2F8" d="m1349.64 630.893 12.53 21.456h-24.65l-12.64-21.624 12.23-21.269 12.53 21.437Z"/><path fill="#639ACC" d="m1287.25 33.507 19.48 33.358h-38.32l-19.65-33.62L1267.77.179l19.48 33.33Z"/><path fill="#F2F7FB" d="m1286.9 99.899 18.69 32.017h-36.78l-18.86-32.268 18.25-31.738 18.7 31.989Z"/><path fill="#FCFDFE" d="m1286.55 166.29 17.91 30.676h-35.23l-18.07-30.916 17.48-30.409 17.91 30.649Z"/><path fill="#3D82BF" d="m1286.2 232.682 17.13 29.335h-33.7l-17.28-29.565 16.72-29.079 17.13 29.309Z"/><path fill="#A1C2E0" d="m1285.84 299.088 16.35 27.994h-32.16l-16.49-28.213 15.95-27.75 16.35 27.969Z"/><path fill="#B8D1E7" d="m1285.39 365.312 15.66 26.821h-30.81l-15.8-27.031 15.29-26.587 15.66 26.797Z"/><path fill="#1F6EB5" d="m1285.04 431.704 14.88 25.479h-29.26l-15.02-25.679 14.53-25.257 14.87 25.457Z"/><path fill="#B8D1E7" d="m1284.69 498.095 14.09 24.139h-27.72l-14.22-24.328 13.75-23.928 14.1 24.117Z"/><path fill="#DBE8F3" d="m1284.33 564.487 13.31 22.797h-26.18l-13.43-22.976 12.99-22.599 13.31 22.778Z"/><path fill="#3079BB" d="m1283.97 630.893 12.53 21.456h-24.64l-12.64-21.624 12.23-21.269 12.52 21.437Z"/><path fill="#1C6CB4" d="m1221.59 33.507 19.47 33.358h-38.31l-19.65-33.62L1202.11.179l19.48 33.33Z"/><path fill="#75A6D2" d="m1221.24 99.899 18.7 32.017h-36.78l-18.86-32.268 18.25-31.738 18.69 31.989Z"/><path fill="#367DBD" d="m1220.89 166.29 17.91 30.676h-35.24l-18.07-30.916 17.49-30.409 17.91 30.649Z"/><path fill="#70A3D0" d="m1220.53 232.682 17.13 29.335h-33.69l-17.29-29.565 16.72-29.079 17.13 29.309Z"/><path fill="#0A61AE" d="m1220.18 299.088 16.34 27.994h-32.15l-16.5-28.213 15.96-27.75 16.35 27.969Z"/><path fill="#ADCAE4" d="m1219.74 365.312 15.66 26.821h-30.81l-15.8-27.031 15.29-26.587 15.66 26.797Z"/><path fill="#E0EBF5" d="m1219.38 431.704 14.88 25.479h-29.27l-15.01-25.679 14.52-25.258 14.88 25.458Z"/><path fill="#1A6BB3" d="m1219.02 498.095 14.1 24.139h-27.73l-14.22-24.328 13.76-23.928 14.09 24.117Z"/><path fill="#8FB6DA" d="m1218.67 564.487 13.31 22.797h-26.19l-13.43-22.976 12.99-22.599 13.32 22.778Z"/><path fill="#EBF2F8" d="m1218.31 630.893 12.53 21.456h-24.65l-12.64-21.624 12.23-21.27 12.53 21.438Z"/><path fill="#367DBD" d="m1155.94 33.507 19.47 33.358h-38.31l-19.65-33.62L1136.46.179l19.48 33.33Z"/><path fill="#CCDEEE" d="m1155.58 99.899 18.69 32.017h-36.77l-18.86-32.268 18.24-31.738 18.7 31.989Z"/><path fill="#9CBFDE" d="m1155.22 166.29 17.91 30.676h-35.23l-18.07-30.916 17.48-30.409 17.91 30.649Z"/><path fill="#ADCAE4" d="m1154.87 232.682 17.12 29.335h-33.69l-17.28-29.565 16.72-29.079 17.13 29.309Z"/><path fill="#337BBC" d="m1154.51 299.088 16.35 27.994h-32.16l-16.49-28.213 15.95-27.75 16.35 27.969Z"/><path fill="#DBE8F3" d="m1154.07 365.312 15.66 26.821h-30.81l-15.8-27.031 15.29-26.587 15.66 26.797Z"/><path fill="#055DAD" d="m1153.71 431.704 14.88 25.479h-29.27l-15.01-25.679 14.53-25.258 14.87 25.458Z"/><path fill="#2471B7" d="m1153.36 498.095 14.09 24.139h-27.72l-14.22-24.328 13.75-23.928 14.1 24.117Z"/><path fill="#78A8D2" d="m1153 564.487 13.31 22.797h-26.18l-13.43-22.976 12.99-22.599 13.31 22.778Z"/><path fill="#B8D1E7" d="m1152.66 630.893 12.53 21.456h-24.65l-12.64-21.624 12.23-21.27 12.53 21.438Z"/><path fill="#3079BB" d="m1090.27 33.507 19.48 33.358h-38.32l-19.65-33.62L1070.79.179l19.48 33.33Z"/><path fill="#A3C4E1" d="m1089.91 99.899 18.7 32.017h-36.78l-18.86-32.268 18.25-31.738 18.69 31.989Z"/><path fill="#94BADC" d="m1089.56 166.29 17.91 30.676h-35.24l-18.07-30.916 17.49-30.409 17.91 30.649Z"/><path fill="#F2F7FB" d="m1089.2 232.682 17.13 29.335h-33.7l-17.28-29.565 16.72-29.079 17.13 29.309Z"/><path fill="#94BADC" d="m1088.86 299.088 16.34 27.994h-32.15l-16.49-28.213 15.95-27.75 16.35 27.969Z"/><path fill="#1F6EB5" d="m1088.4 365.312 15.66 26.821h-30.8l-15.8-27.031 15.28-26.587 15.66 26.797Z"/><path fill="#8AB3D8" d="m1088.05 431.704 14.88 25.479h-29.27l-15.01-25.679 14.52-25.258 14.88 25.458Z"/><path fill="#035CAC" d="m1087.69 498.095 14.1 24.139h-27.73l-14.22-24.328 13.76-23.928 14.09 24.117Z"/><path fill="#2974B8" d="m1087.34 564.487 13.31 22.797h-26.19l-13.43-22.976 12.99-22.599 13.32 22.778Z"/><path fill="#EDF3F9" d="m1086.99 630.893 12.53 21.456h-24.64l-12.64-21.624 12.23-21.27 12.52 21.438Z"/><path fill="#CFE0EF" d="m1024.6 33.507 19.48 33.358h-38.31l-19.655-33.62L1005.13.179l19.47 33.33Z"/><path fill="#B8D1E7" d="m1024.25 99.899 18.69 32.017h-36.77l-18.864-32.268 18.244-31.738 18.7 31.989Z"/><path fill="#75A6D2" d="m1023.89 166.29 17.91 30.676h-35.23l-18.073-30.916 17.483-30.409 17.91 30.649Z"/><path fill="#EDF3F9" d="m1023.54 232.682 17.12 29.335h-33.69l-17.282-29.565 16.722-29.079 17.13 29.309Z"/><path fill="#BAD2E8" d="m1023.19 299.088 16.35 27.994h-32.16l-16.487-28.213 15.957-27.75 16.34 27.969Z"/><path fill="#70A3D0" d="m1022.74 365.312 15.66 26.821h-30.81l-15.797-27.031 15.287-26.587 15.66 26.797Z"/><path fill="#E8F0F7" d="m1022.38 431.704 14.88 25.479h-29.27l-15.006-25.679 14.526-25.258 14.87 25.458Z"/><path fill="#2471B7" d="m1022.03 498.095 14.09 24.139h-27.73l-14.216-24.328 13.756-23.928 14.1 24.117Z"/><path fill="#0A61AE" d="m1021.68 564.487 13.32 22.797h-26.19l-13.43-22.976 12.99-22.599 13.31 22.778Z"/><path fill="#4285C1" d="m1021.33 630.893 12.53 21.456h-24.65l-12.639-21.624 12.229-21.27 12.53 21.438Z"/><path fill="#C7DBED" d="m958.939 33.507 19.478 33.358h-38.316l-19.652-33.62L939.462.179l19.477 33.33Z"/><path fill="#4587C2" d="m958.583 99.899 18.695 32.017h-36.776L921.64 99.648l18.249-31.738 18.694 31.989Z"/><path fill="#0F64B0" d="m958.226 166.29 17.912 30.676h-35.235l-18.072-30.916 17.484-30.409 17.911 30.649Z"/><path fill="#E6EFF7" d="m957.885 232.682 17.128 29.335h-33.694l-17.282-29.565 16.719-29.079 17.129 29.309Z"/><path fill="#0D62AF" d="m957.528 299.088 16.346 27.994H941.72l-16.492-28.213 15.955-27.75 16.345 27.969Z"/><path fill="#528FC6" d="m957.074 365.312 15.66 26.821h-30.806l-15.801-27.031 15.286-26.587 15.661 26.797Z"/><path fill="#E8F0F7" d="m956.717 431.704 14.878 25.479h-29.266l-15.011-25.679 14.522-25.258 14.877 25.458Z"/><path fill="#055DAD" d="m956.361 498.095 14.094 24.139h-27.726l-14.22-24.328 13.758-23.928 14.094 24.117Z"/><path fill="#7AA9D3" d="m956.019 564.487 13.312 22.797h-26.186l-13.43-22.976 12.993-22.599 13.311 22.778Z"/><path fill="#055DAD" d="m955.663 630.893 12.528 21.456h-24.645l-12.641-21.624 12.229-21.27 12.529 21.438Z"/><path fill="#9EC0DF" d="m893.274 33.507 19.478 33.358h-38.316l-19.652-33.62L873.797.179l19.477 33.33Z"/><path fill="#82AED6" d="m892.918 99.899 18.694 32.017h-36.775l-18.862-32.268 18.248-31.738 18.695 31.989Z"/><path fill="#4788C3" d="m892.561 166.29 17.912 30.676h-35.235l-18.072-30.916 17.484-30.409 17.911 30.649Z"/><path fill="#0F64B0" d="m892.219 232.682 17.129 29.335h-33.695l-17.282-29.565 16.72-29.079 17.128 29.309Z"/><path fill="#BDD4E9" d="m891.863 299.088 16.346 27.994h-32.155l-16.492-28.213 15.956-27.75 16.345 27.969Z"/><path fill="#D6E5F2" d="m891.409 365.312 15.66 26.821h-30.806l-15.801-27.031 15.286-26.587 15.661 26.797Z"/><path fill="#DBE8F3" d="m891.052 431.704 14.877 25.479h-29.266l-15.01-25.679 14.522-25.258 14.877 25.458Z"/><path fill="#035CAC" d="m890.71 498.095 14.095 24.139h-27.726l-14.221-24.328 13.758-23.928 14.094 24.117Z"/><path fill="#367DBD" d="m890.354 564.487 13.311 22.797H877.48l-13.431-22.976 12.994-22.599 13.311 22.778Z"/><path fill="#D9E6F2" d="m889.998 630.893 12.528 21.456h-24.645l-12.641-21.624 12.229-21.27 12.529 21.438Z"/><path fill="#669CCD" d="m827.609 33.507 19.477 33.358h-38.315l-19.652-33.62L808.131.179l19.478 33.33Z"/><path fill="#EBF2F8" d="m827.252 99.899 18.695 32.017h-36.775L790.31 99.648l18.248-31.738 18.694 31.989Z"/><path fill="#A3C4E1" d="m826.91 166.29 17.912 30.676h-35.235l-18.072-30.916 17.484-30.409 17.911 30.649Z"/><path fill="#5490C7" d="m826.554 232.682 17.129 29.335h-33.695l-17.282-29.565 16.72-29.079 17.128 29.309Z"/><path fill="#8CB5D9" d="m826.198 299.088 16.345 27.994h-32.154l-16.492-28.213 15.955-27.75 16.346 27.969Z"/><path fill="#2471B7" d="m825.743 365.312 15.661 26.821h-30.807l-15.8-27.031 15.286-26.587 15.66 26.797Z"/><path fill="#8CB5D9" d="m825.402 431.704 14.877 25.479h-29.266l-15.011-25.679 14.522-25.258 14.878 25.458Z"/><path fill="#5792C8" d="m825.045 498.095 14.094 24.139h-27.725l-14.221-24.328 13.758-23.928 14.094 24.117Z"/><path fill="#5E97CA" d="M824.689 564.487 838 587.284h-26.185l-13.431-22.976 12.993-22.599 13.312 22.778Z"/><path fill="#528FC6" d="m824.332 630.893 12.528 21.456h-24.645l-12.64-21.624 12.229-21.27 12.528 21.438Z"/><path fill="#EBF2F8" d="m761.944 33.507 19.477 33.358h-38.315l-19.652-33.62L742.466.179l19.478 33.33Z"/><path fill="#8CB5D9" d="m761.602 99.899 18.694 32.017h-36.775l-18.862-32.268 18.248-31.738 18.695 31.989Z"/><path fill="#E6EFF7" d="m761.245 166.29 17.912 30.676h-35.235L725.85 166.05l17.484-30.409 17.911 30.649Z"/><path fill="#E3EDF6" d="m760.889 232.682 17.128 29.335h-33.694l-17.282-29.565 16.719-29.079 17.129 29.309Z"/><path fill="#BDD4E9" d="m760.532 299.088 16.346 27.994h-32.155l-16.491-28.213 15.955-27.75 16.345 27.969Z"/><path fill="#0D62AF" d="m760.078 365.312 15.66 26.821h-30.806l-15.801-27.031 15.287-26.587 15.66 26.797Z"/><path fill="#E6EFF7" d="m759.736 431.704 14.878 25.479h-29.267l-15.01-25.679 14.522-25.258 14.877 25.458Z"/><path fill="#4285C1" d="m759.38 498.095 14.094 24.139h-27.726l-14.22-24.328 13.758-23.928 14.094 24.117Z"/><path fill="#1C6CB4" d="m759.023 564.487 13.312 22.797h-26.186l-13.43-22.976 12.993-22.599 13.311 22.778Z"/><path fill="#80ADD5" d="m758.667 630.893 12.528 21.456H746.55l-12.641-21.624 12.23-21.27 12.528 21.438Z"/><path fill="#4A8AC3" d="m696.278 33.507 19.478 33.358H677.44l-19.652-33.62L676.801.179l19.477 33.33Z"/><path fill="#87B1D8" d="m695.936 99.899 18.695 32.017h-36.775l-18.862-32.268 18.248-31.738 18.694 31.989Z"/><path fill="#1266B1" d="m695.58 166.29 17.911 30.676h-35.234l-18.072-30.916 17.483-30.409 17.912 30.649Z"/><path fill="#3B80BE" d="m695.224 232.682 17.128 29.335h-33.695l-17.281-29.565 16.719-29.079 17.129 29.309Z"/><path fill="#A1C2E0" d="m694.867 299.088 16.345 27.994h-32.154l-16.492-28.213 15.955-27.75 16.346 27.969Z"/><path fill="#ADCAE4" d="m694.427 365.312 15.661 26.82h-30.807l-15.8-27.03 15.286-26.587 15.66 26.797Z"/><path fill="#D1E1F0" d="m694.071 431.704 14.877 25.479h-29.266l-15.01-25.679 14.522-25.258 14.877 25.458Z"/><path fill="#035CAC" d="m693.715 498.095 14.094 24.139h-27.726l-14.221-24.328 13.758-23.928 14.095 24.117Z"/><path fill="#1C6CB4" d="m693.358 564.487 13.311 22.797h-26.185l-13.431-22.976 12.994-22.599 13.311 22.778Z"/><path fill="#78A8D2" d="m693.002 630.893 12.528 21.456h-24.645l-12.641-21.624 12.229-21.27 12.529 21.438Z"/><path fill="#005AAB" d="m630.627 33.507 19.478 33.358h-38.316l-19.652-33.62L611.15.179l19.477 33.33Zm-.356 66.392 18.695 32.017H612.19l-18.862-32.268 18.249-31.738 18.694 31.989Z"/><path fill="#EDF3F9" d="m629.914 166.29 17.912 30.676h-35.235l-18.072-30.916 17.484-30.409 17.911 30.649Z"/><path fill="#1F6EB5" d="m629.558 232.682 17.129 29.335h-33.695l-17.282-29.565 16.72-29.079 17.128 29.309Z"/><path fill="#C4D9EC" d="m629.202 299.088 16.345 27.994h-32.154l-16.492-28.213 15.955-27.75 16.346 27.969Z"/><path fill="#A3C4E1" d="m628.762 365.312 15.66 26.82h-30.806l-15.801-27.03 15.287-26.587 15.66 26.797Z"/><path fill="#F7FAFC" d="m628.405 431.704 14.878 25.479h-29.266l-15.011-25.679 14.522-25.258 14.877 25.458Z"/><path fill="#E3EDF6" d="m628.049 498.095 14.094 24.139h-27.726l-14.22-24.328 13.758-23.928 14.094 24.117Z"/><path fill="#528FC6" d="m627.693 564.487 13.311 22.797h-26.186l-13.43-22.976 12.993-22.599 13.312 22.778Z"/><path fill="#EDF3F9" d="m627.351 630.893 12.528 21.456h-24.645l-12.64-21.624 12.229-21.27 12.528 21.438Z"/><path fill="#82AED6" d="m564.962 33.507 19.478 33.358h-38.316l-19.652-33.62L545.485.179l19.477 33.33Z"/><path fill="#78A8D2" d="m564.606 99.899 18.694 32.017h-36.775l-18.862-32.268 18.248-31.738 18.695 31.989Z"/><path fill="#80ADD5" d="m564.249 166.29 17.912 30.676h-35.235l-18.072-30.916 17.484-30.409 17.911 30.649Z"/><path fill="#085FAE" d="m563.893 232.682 17.128 29.335h-33.694l-17.282-29.565 16.719-29.079 17.129 29.309Z"/><path fill="#1C6CB4" d="m563.551 299.088 16.345 27.994h-32.154l-16.492-28.213 15.956-27.75 16.345 27.969Z"/><path fill="#70A3D0" d="m563.097 365.312 15.66 26.82h-30.806l-15.801-27.03 15.286-26.587 15.661 26.797Z"/><path fill="#E6EFF7" d="m562.74 431.704 14.877 25.479h-29.266l-15.01-25.679 14.522-25.258 14.877 25.458Z"/><path fill="#0D62AF" d="m562.384 498.095 14.094 24.139h-27.726l-14.22-24.328 13.757-23.928 14.095 24.117Z"/><path fill="#1F6EB5" d="m562.027 564.487 13.312 22.797h-26.186l-13.43-22.976 12.993-22.599 13.311 22.778Z"/><path fill="#94BADC" d="m561.685 630.893 12.529 21.456h-24.646l-12.64-21.624 12.229-21.27 12.528 21.438Z"/><path fill="#D4E3F1" d="m499.297 33.507 19.477 33.358h-38.315l-19.652-33.62L479.819.179l19.478 33.33Z"/><path fill="#D9E6F2" d="m498.94 99.899 18.695 32.017H480.86l-18.862-32.268 18.248-31.738 18.694 31.989Z"/><path fill="#C4D9EC" d="m498.584 166.29 17.911 30.676H481.26l-18.071-30.916 17.483-30.409 17.912 30.649Z"/><path fill="#80ADD5" d="m498.227 232.682 17.129 29.335h-33.695l-17.282-29.565 16.72-29.079 17.128 29.309Z"/><path fill="#669CCD" d="m497.885 299.088 16.346 27.994h-32.154l-16.492-28.213 15.955-27.75 16.345 27.969Z"/><path fill="#F2F7FB" d="m497.431 365.312 15.661 26.82h-30.807l-15.801-27.03 15.287-26.587 15.66 26.797Z"/><path fill="#ABC9E3" d="m497.075 431.704 14.877 25.479h-29.266l-15.011-25.679 14.522-25.258 14.878 25.458Z"/><path fill="#5C95C9" d="m496.718 498.095 14.095 24.139h-27.726l-14.221-24.328 13.758-23.928 14.094 24.117Z"/><path fill="#A6C5E2" d="m496.376 564.487 13.312 22.797h-26.186l-13.43-22.976 12.993-22.599 13.311 22.778Z"/><path fill="#94BADC" d="m496.02 630.893 12.528 21.456h-24.645l-12.64-21.624 12.229-21.27 12.528 21.438Z"/><path fill="#9EC0DF" d="m433.631 33.507 19.478 33.358h-38.316l-19.652-33.62L414.154.179l19.477 33.33Z"/><path fill="#1F6EB5" d="m433.275 99.899 18.694 32.017h-36.775l-18.862-32.268L414.58 67.91l18.695 31.989Z"/><path fill="#216FB6" d="m432.919 166.29 17.911 30.676h-35.235l-18.072-30.916 17.484-30.409 17.912 30.649Z"/><path fill="#2B76B9" d="m432.577 232.682 17.128 29.335h-33.694l-17.282-29.565 16.719-29.079 17.129 29.309Z"/><path fill="#216FB6" d="m432.22 299.088 16.346 27.994h-32.155l-16.491-28.213 15.955-27.75 16.345 27.969Z"/><path fill="#B5CFE7" d="m431.766 365.312 15.66 26.82H416.62l-15.801-27.03 15.287-26.587 15.66 26.797Z"/><path fill="#78A8D2" d="m431.409 431.704 14.878 25.479H417.02l-15.01-25.679 14.522-25.258 14.877 25.458Z"/><path fill="#D9E6F2" d="m431.068 498.095 14.094 24.139h-27.726l-14.22-24.328 13.757-23.928 14.095 24.117Z"/><path fill="#9EC0DF" d="m430.711 564.487 13.311 22.797h-26.185l-13.431-22.976 12.994-22.599 13.311 22.778Z"/><path fill="#CCDEEE" d="m430.355 630.893 12.528 21.456h-24.645l-12.641-21.624 12.23-21.27 12.528 21.438Z"/><path fill="#BDD4E9" d="m367.966 33.507 19.478 33.358h-38.316l-19.652-33.62L348.489.179l19.477 33.33Z"/><path fill="#C7DBED" d="m367.61 99.899 18.694 32.017h-36.775l-18.862-32.268 18.248-31.738 18.695 31.989Z"/><path fill="#337BBC" d="m367.268 166.29 17.911 30.676h-35.235l-18.072-30.916 17.484-30.409 17.912 30.649Z"/><path fill="#9EC0DF" d="m366.911 232.682 17.129 29.335h-33.695l-17.282-29.565 16.72-29.079 17.128 29.309Z"/><path fill="#387EBD" d="m366.555 299.088 16.345 27.994h-32.154l-16.492-28.213 15.955-27.75 16.346 27.969Z"/><path fill="#055DAD" d="m366.101 365.312 15.66 26.82h-30.806l-15.801-27.03 15.286-26.587 15.661 26.797Z"/><path fill="#BAD2E8" d="m365.744 431.704 14.878 25.479h-29.267l-15.01-25.679 14.522-25.258 14.877 25.458Z"/><path fill="#4D8CC4" d="m365.402 498.095 14.095 24.139h-27.726l-14.221-24.328 13.758-23.928 14.094 24.117Z"/><path fill="#367DBD" d="m365.046 564.487 13.311 22.797h-26.185l-13.431-22.976 12.994-22.599 13.311 22.778Z"/><path fill="#BAD2E8" d="m364.689 630.893 12.529 21.456h-24.646l-12.64-21.624 12.229-21.27 12.528 21.438Z"/><path fill="#1467B2" d="m302.301 33.507 19.477 33.358h-38.315l-19.652-33.62L282.823.179l19.478 33.33Z"/><path fill="#055DAD" d="m301.944 99.899 18.695 32.017h-36.775l-18.862-32.268L283.25 67.91l18.694 31.989Z"/><path fill="#D6E5F2" d="m301.602 166.29 17.912 30.676h-35.235l-18.072-30.916 17.484-30.409 17.911 30.649Z"/><path fill="#ABC9E3" d="m301.246 232.682 17.129 29.335H284.68l-17.282-29.565 16.72-29.079 17.128 29.309Z"/><path fill="#A6C5E2" d="m300.89 299.088 16.345 27.994h-32.154l-16.492-28.213 15.955-27.75 16.346 27.969Z"/><path fill="#387EBD" d="m300.435 365.312 15.66 26.82h-30.806l-15.801-27.03 15.287-26.587 15.66 26.797Z"/><path fill="#5994C8" d="m300.093 431.704 14.878 25.479h-29.266l-15.011-25.679 14.522-25.258 14.877 25.458Z"/><path fill="#80ADD5" d="m299.737 498.095 14.094 24.139h-27.726l-14.22-24.328 13.758-23.928 14.094 24.117Z"/><path fill="#B5CFE7" d="m299.381 564.487 13.311 22.797h-26.186l-13.43-22.976 12.993-22.599 13.312 22.778Z"/><path fill="#8CB5D9" d="m299.024 630.893 12.528 21.456h-24.645l-12.64-21.624 12.229-21.27 12.528 21.438Z"/><path fill="#D4E3F1" d="m236.635 33.507 19.478 33.358h-38.316l-19.652-33.62L217.158.179l19.477 33.33Z"/><path fill="#75A6D2" d="m236.294 99.899 18.694 32.017h-36.775l-18.862-32.268 18.248-31.738 18.695 31.989Z"/><path fill="#528FC6" d="m235.937 166.29 17.912 30.676h-35.235l-18.072-30.916 17.484-30.409 17.911 30.649Z"/><path fill="#C9DCED" d="m235.581 232.682 17.128 29.335h-33.694l-17.282-29.565 16.719-29.079 17.129 29.309Z"/><path fill="#6EA1CF" d="m235.224 299.088 16.346 27.994h-32.155l-16.492-28.213 15.956-27.75 16.345 27.969Z"/><path fill="#8AB3D8" d="m234.77 365.312 15.66 26.82h-30.806l-15.801-27.03 15.286-26.587 15.661 26.797Z"/><path fill="#0D62AF" d="m234.428 431.704 14.877 25.479h-29.266l-15.01-25.679 14.522-25.258 14.877 25.458Z"/><path fill="#4587C2" d="m234.071 498.095 14.095 24.139H220.44l-14.221-24.328 13.758-23.928 14.094 24.117Z"/><path fill="#D1E1F0" d="m233.715 564.487 13.312 22.797h-26.186l-13.43-22.976 12.993-22.599 13.311 22.778Z"/><path fill="#3079BB" d="m233.359 630.893 12.528 21.456h-24.645l-12.641-21.624 12.229-21.27 12.529 21.438Z"/><path fill="#005AAB" d="m170.97 33.507 19.478 33.358h-38.316l-19.652-33.62L151.492.179l19.478 33.33Z"/><path fill="#B3CEE6" d="m170.628 99.899 18.695 32.017h-36.775l-18.862-32.268 18.248-31.738 18.694 31.989Z"/><path fill="#DBE8F3" d="m170.272 166.29 17.911 30.676h-35.235l-18.071-30.916 17.483-30.409 17.912 30.649Z"/><path fill="#85B0D7" d="m169.915 232.682 17.129 29.335h-33.695l-17.282-29.565 16.72-29.079 17.128 29.309Z"/><path fill="#E6EFF7" d="m169.559 299.088 16.345 27.994H153.75l-16.492-28.213 15.955-27.75 16.346 27.969Z"/><path fill="#96BBDD" d="m169.119 365.312 15.661 26.82h-30.807l-15.801-27.03 15.287-26.587 15.66 26.797Z"/><path fill="#F0F5FA" d="m168.763 431.703 14.877 25.48h-29.266l-15.011-25.679 14.522-25.258 14.878 25.457Z"/><path fill="#82AED6" d="m168.406 498.095 14.094 24.139h-27.725l-14.221-24.328 13.758-23.928 14.094 24.117Z"/><path fill="#216FB6" d="m168.05 564.487 13.311 22.797h-26.185l-13.431-22.976 12.994-22.599 13.311 22.778Z"/><path fill="#1769B3" d="m167.693 630.893 12.529 21.456h-24.645l-12.641-21.624 12.229-21.27 12.528 21.438Z"/><path fill="#367DBD" d="m105.319 33.507 19.478 33.358H86.481L66.83 33.245 85.842.179l19.477 33.33Z"/><path fill="#80ADD5" d="m104.963 99.899 18.694 32.017H86.882L68.02 99.648 86.268 67.91l18.695 31.989Z"/><path fill="#0A61AE" d="m104.606 166.29 17.912 30.676H87.283L69.21 166.05l17.484-30.409 17.911 30.649Z"/><path fill="#F0F5FA" d="m104.25 232.682 17.128 29.335H87.684l-17.282-29.565 16.72-29.079 17.128 29.309Z"/><path fill="#055DAD" d="m103.893 299.088 16.346 27.994H88.085l-16.492-28.213 15.955-27.75 16.345 27.969Z"/><path fill="#9CBFDE" d="m103.454 365.312 15.66 26.82H88.308l-15.8-27.03 15.286-26.587 15.66 26.797Z"/><path fill="#367DBD" d="m103.097 431.704 14.878 25.479H88.709l-15.011-25.679 14.522-25.258 14.877 25.458Z"/><path fill="#1F6EB5" d="m102.741 498.095 14.094 24.139H89.109l-14.22-24.328 13.758-23.928 14.094 24.117Z"/><path fill="#82AED6" d="m102.384 564.487 13.312 22.797H89.51l-13.43-22.976 12.993-22.599 13.311 22.778Z"/><path fill="#7AA9D3" d="m102.043 630.893 12.528 21.456H89.926l-12.64-21.624 12.228-21.27 12.529 21.438Z"/><path fill="#BFD6EA" d="M39.654 33.507 59.13 66.865H20.816L1.164 33.245 20.176.179l19.478 33.33Z"/><path fill="#035CAC" d="m39.298 99.899 18.694 32.017H21.217L2.355 99.648 20.603 67.91l18.695 31.989Z"/><path fill="#3079BB" d="m38.941 166.29 17.911 30.676H21.618L3.546 166.05l17.483-30.409 17.912 30.649Z"/><path fill="#E3EDF6" d="m38.585 232.682 17.128 29.335H22.02L4.737 232.452l16.72-29.079 17.128 29.309Z"/><path fill="#75A6D2" d="m38.243 299.088 16.345 27.994H22.434L5.942 298.869l15.955-27.75 16.346 27.969Z"/><path fill="#ADCAE4" d="m37.788 365.312 15.66 26.82H22.643l-15.8-27.03 15.286-26.587 15.66 26.797Z"/><path fill="#F7FAFC" d="m37.432 431.704 14.877 25.479H23.043l-15.01-25.679 14.522-25.258 14.877 25.458Z"/><path fill="#367DBD" d="m37.076 498.095 14.094 24.139H23.444l-14.22-24.328 13.757-23.928 14.095 24.117Z"/><path fill="#216FB6" d="m36.734 564.487 13.31 22.797H23.86l-13.43-22.976 12.993-22.599 13.312 22.778Z"/><path fill="#1769B3" d="m36.377 630.893 12.529 21.456H24.26l-12.64-21.624 12.229-21.27 12.528 21.438Z"/></g><defs><clipPath id="a"><path fill="#fff" d="M1440 674H0V0h1440z"/></clipPath></defs></svg>