<svg xmlns="http://www.w3.org/2000/svg" width="200" height="180" fill="none"><g clip-path="url(#a)"><g clip-path="url(#b)"><path fill="#fff" d="m12 21.682 99.964-8.746 12.39 141.616-99.964 8.746z"/><path fill="#F6A250" d="m12 21.682 99.964-8.746 1.625 18.572-99.964 8.746z"/><path fill="#DDE1E5" d="m81.907 34.281 31.683-2.772 10.848 124-31.682 2.771z" opacity=".5"/><rect width="23.03" height="2.742" x="90.864" y="86.338" fill="#E0E4E8" rx=".548" transform="rotate(-5 90.864 86.338)"/><rect width="23.03" height="2.742" x="93.35" y="114.744" fill="#E0E4E8" rx=".548" transform="rotate(-5 93.35 114.744)"/><rect width="23.03" height="2.742" x="91.916" y="98.356" fill="#E0E4E8" rx=".548" transform="rotate(-5 91.916 98.356)"/><rect width="23.03" height="2.742" x="94.401" y="126.762" fill="#E0E4E8" rx=".548" transform="rotate(-5 94.4 126.762)"/><rect width="13.709" height="2.742" x="91.294" y="91.254" fill="#E0E4E8" rx=".548" transform="rotate(-5 91.294 91.254)"/><rect width="13.709" height="2.742" x="93.78" y="119.66" fill="#E0E4E8" rx=".548" transform="rotate(-5 93.78 119.66)"/><rect width="13.709" height="2.742" x="92.346" y="103.271" fill="#E0E4E8" rx=".548" transform="rotate(-5 92.346 103.271)"/><rect width="13.709" height="2.742" x="94.831" y="131.678" fill="#E0E4E8" rx=".548" transform="rotate(-5 94.831 131.678)"/><rect width="43.483" height="4.387" x="16.852" y="25.109" fill="#FECA8C" rx=".669" transform="rotate(-5 16.852 25.11)"/><rect width="36.125" height="3.29" x="17.521" y="32.758" fill="#FECA8C" rx=".669" transform="rotate(-5 17.521 32.758)"/><rect width="59.769" height="9.322" x="18.33" y="43.695" fill="#E9EAEF" rx=".669" transform="rotate(-5 18.33 43.695)"/><rect width="12.612" height="2.742" x="19.429" y="56.26" fill="#DDE1E5" rx=".669" transform="rotate(-5 19.429 56.26)"/><rect width="12.612" height="2.742" x="25.259" y="122.902" fill="#DDE1E5" rx=".669" transform="rotate(-5 25.26 122.902)"/><rect width="12.612" height="2.742" x="27.649" y="150.215" fill="#DDE1E5" rx=".669" transform="rotate(-5 27.649 150.215)"/><rect width="25.224" height="4.387" x="30.285" y="60.815" fill="#DDE1E5" rx=".669" transform="rotate(-5 30.285 60.815)"/><rect width="7.128" height="4.387" x="19.907" y="61.723" fill="#DDE1E5" rx=".669" transform="rotate(-5 19.907 61.723)"/><rect width="7.128" height="4.387" x="22.726" y="93.951" fill="#DDE1E5" rx=".669" transform="rotate(-5 22.726 93.951)"/><rect width="7.128" height="3.838" x="25.785" y="128.912" fill="#DDE1E5" rx=".669" transform="rotate(-5 25.785 128.912)"/><rect width="7.128" height="3.838" x="26.358" y="135.467" fill="#DDE1E5" rx=".669" transform="rotate(-5 26.358 135.467)"/><rect width="25.224" height="4.387" x="33.105" y="93.043" fill="#DDE1E5" rx=".669" transform="rotate(-5 33.105 93.043)"/><rect width="35.094" height="3.838" x="36.164" y="128.004" fill="#DDE1E5" rx=".669" transform="rotate(-5 36.164 128.004)"/><rect width="47.157" height="16.998" x="30.907" y="67.916" fill="#E9EAEF" rx=".669" transform="rotate(-5 30.907 67.916)"/><rect width="47.157" height="12.063" x="33.726" y="100.145" fill="#E9EAEF" rx=".669" transform="rotate(-5 33.726 100.145)"/><rect width="47.157" height="4.387" x="34.969" y="114.348" fill="#E9EAEF" rx=".669" transform="rotate(-5 34.969 114.348)"/><rect width="47.157" height="2.193" x="38.553" y="155.316" fill="#DDE1E5" rx=".669" transform="rotate(-5 38.553 155.316)"/><rect width="47.157" height="4.387" x="32.532" y="86.488" fill="#E9EAEF" rx=".669" transform="rotate(-5 32.532 86.488)"/><rect width="47.157" height="11.515" x="36.737" y="134.559" fill="#E9EAEF" rx=".669" transform="rotate(-5 36.737 134.559)"/><rect width="23.03" height="29.062" x="86.611" y="37.723" fill="#DDE1E5" opacity=".8" rx=".548" transform="rotate(-5 86.61 37.723)"/><rect width="23.03" height="3.29" x="89.67" y="72.682" fill="#DDE1E5" opacity=".8" rx=".669" transform="rotate(-5 89.67 72.682)"/></g></g><rect width="100.602" height="142.103" x="11.458" y="21.227" stroke="#DFE4ED" rx="3.547" transform="rotate(-5 11.458 21.227)"/><g clip-path="url(#c)"><g clip-path="url(#d)"><path fill="#fff" d="m87.78 13.002 99.964 8.746-12.39 141.616-99.964-8.746z"/><path fill="#81BEF5" d="m87.78 13.002 99.964 8.746-2.198 25.128-99.964-8.746z"/><rect width="43.483" height="4.387" x="91.963" y="17.221" fill="#fff" rx=".669" transform="rotate(5 91.963 17.22)"/><rect width="36.125" height="3.29" x="91.293" y="24.869" fill="#fff" rx=".669" transform="rotate(5 91.293 24.87)"/><rect width="12.612" height="2.742" x="90.525" y="31.957" fill="#fff" rx=".669" transform="rotate(5 90.525 31.957)"/><rect width="12.612" height="2.742" x="137.502" y="36.066" fill="#fff" rx=".669" transform="rotate(5 137.502 36.066)"/><rect width="25.772" height="2.742" x="105.82" y="33.295" fill="#fff" rx=".669" transform="rotate(5 105.82 33.295)"/><rect width="29.062" height="2.742" x="152.798" y="37.404" fill="#fff" opacity=".35" rx=".669" transform="rotate(5 152.798 37.404)"/><rect width="91.573" height="12.063" x="89.617" y="42.336" fill="#E9EAEF" rx=".669" transform="rotate(5 89.617 42.336)"/><rect width="12.612" height="2.742" x="88.183" y="58.723" fill="#DDE1E5" rx=".669" transform="rotate(5 88.183 58.723)"/><rect width="14.257" height="2.742" x="81.97" y="129.736" fill="#DDE1E5" rx=".669" transform="rotate(5 81.97 129.736)"/><rect width="25.224" height="4.387" x="97.845" y="67.824" fill="#DDE1E5" rx=".669" transform="rotate(5 97.845 67.824)"/><rect width="7.128" height="4.387" x="87.466" y="66.918" fill="#DDE1E5" rx=".669" transform="rotate(5 87.466 66.918)"/><rect width="7.128" height="4.387" x="84.647" y="99.147" fill="#DDE1E5" rx=".669" transform="rotate(5 84.647 99.147)"/><rect width="25.224" height="4.387" x="95.025" y="100.055" fill="#DDE1E5" rx=".669" transform="rotate(5 95.025 100.055)"/><rect width="81.154" height="16.998" x="97.224" y="74.926" fill="#E9EAEF" rx=".669" transform="rotate(5 97.224 74.926)"/><rect width="81.154" height="12.063" x="94.404" y="107.156" fill="#E9EAEF" rx=".669" transform="rotate(5 94.404 107.156)"/><rect width="81.154" height="4.387" x="93.162" y="121.357" fill="#E9EAEF" rx=".669" transform="rotate(5 93.162 121.357)"/><rect width="24.675" height="2.742" x="91.394" y="141.568" fill="#E9EAEF" rx=".669" transform="rotate(5 91.394 141.568)"/><rect width="18.095" height="2.742" x="90.963" y="146.486" fill="#E9EAEF" rx=".669" transform="rotate(5 90.963 146.486)"/><rect width="81.154" height="4.387" x="95.599" y="93.498" fill="#E9EAEF" rx=".669" transform="rotate(5 95.6 93.498)"/><path fill="#E9EAEF" d="m81.588 134.105 91.225 7.981-.048.546-91.225-7.981zm6.213-71.011 91.225 7.981-.048.546-91.225-7.981z"/></g><path fill="#fff" d="M141.201 145.527a.55.55 0 0 1 .594-.499l24.395 2.135-.237 2.711-24.395-2.135a.547.547 0 0 1-.498-.594l.141-1.618Zm-.427 4.879a.55.55 0 0 1 .595-.499l20.599 1.802-.237 2.711-20.6-1.802a.548.548 0 0 1-.498-.594l.141-1.618Z" opacity=".5"/><path fill="#81BEF5" d="m166.19 147.162 4.876.427a.548.548 0 0 1 .499.594l-.142 1.618a.548.548 0 0 1-.594.499l-4.876-.427.237-2.711Zm-4.222 4.547 8.671.759a.547.547 0 0 1 .498.594l-.141 1.618a.55.55 0 0 1-.594.499l-8.671-.759.237-2.711Z"/></g><rect width="100.602" height="142.103" x="87.325" y="12.46" stroke="#DFE4ED" rx="3.547" transform="rotate(5 87.325 12.46)"/><rect width="122" height="168" x="38.5" y="5.5" fill="#F4F9FD" rx="8.5"/><rect width="122" height="168" x="38.5" y="5.5" stroke="#0070D6" rx="8.5"/><g clip-path="url(#e)"><rect width="108.56" height="154.659" x="45.5" y="12.35" stroke="#000" rx="2.493"/><rect width="109" height="156" x="45" y="11.85" fill="#fff" rx="3"/><path fill="#0F7D81" d="M45 11.852h34.724v155.659H45z"/><rect width="25.145" height="9.579" x="49.79" y="17.838" fill="#F4FFFE" opacity=".5" rx=".599"/><rect width="25.145" height="2.993" x="49.79" y="52.563" fill="#F4FFFE" opacity=".5" rx=".599"/><path fill="#F4FFFE" d="M49.79 105.845c0-.331.268-.599.598-.599h18.56v2.994h-18.56a.6.6 0 0 1-.598-.599v-1.796Zm0 37.119c0-.331.268-.599.598-.599h18.56v2.994h-18.56a.599.599 0 0 1-.598-.599v-1.796Zm0-31.731c0-.33.268-.598.598-.598h14.369v2.993H50.388a.598.598 0 0 1-.598-.598v-1.797Zm0 37.12c0-.331.268-.599.598-.599h14.369v2.993H50.388a.598.598 0 0 1-.598-.598v-1.796Zm0-31.731c0-.331.268-.599.598-.599h18.56v2.994h-18.56a.599.599 0 0 1-.598-.599v-1.796Zm0 5.389c0-.331.268-.599.598-.599h15.566v2.994H50.388a.599.599 0 0 1-.598-.599v-1.796Z" opacity=".5"/><path fill="#F4FFFE" d="M68.947 105.246h5.388a.6.6 0 0 1 .6.599v1.796a.6.6 0 0 1-.6.599h-5.388v-2.994Zm0 37.119h5.388a.6.6 0 0 1 .6.599v1.796a.599.599 0 0 1-.6.599h-5.388v-2.994Zm-4.19-31.73h9.579a.6.6 0 0 1 .599.598v1.797a.6.6 0 0 1-.6.598h-9.578v-2.993Zm0 37.119h9.579a.6.6 0 0 1 .599.599v1.796a.6.6 0 0 1-.6.598h-9.578v-2.993Zm4.19-31.731h5.388a.6.6 0 0 1 .6.599v1.796a.599.599 0 0 1-.6.599h-5.388v-2.994Zm-2.993 5.389h8.382c.33 0 .598.268.598.599v1.796a.599.599 0 0 1-.598.599h-8.382v-2.994Z" opacity=".25"/><rect width="25.145" height="2.993" x="49.79" y="65.734" fill="#F4FFFE" opacity=".5" rx=".599"/><rect width="25.145" height="2.993" x="49.79" y="78.904" fill="#F4FFFE" opacity=".5" rx=".599"/><rect width="14.967" height="2.993" x="49.79" y="57.951" fill="#F4FFFE" opacity=".5" rx=".599"/><rect width="14.967" height="2.993" x="49.79" y="71.121" fill="#F4FFFE" opacity=".5" rx=".599"/><rect width="14.967" height="2.993" x="49.79" y="84.293" fill="#F4FFFE" opacity=".5" rx=".599"/><path fill="#004955" d="M45 39.391h34.724v8.382H45zm0 52.685h34.724v8.382H45zm0 37.117h34.724v8.382H45z" opacity=".5"/><rect width="25.145" height="4.79" x="49.79" y="31.01" fill="#EBFAF8" opacity=".5" rx=".599"/><rect width="65.257" height="2.395" x="84.514" y="17.836" fill="#E4E5EB" opacity=".8" rx=".599"/><rect width="65.257" height="2.395" x="84.514" y="22.027" fill="#E4E5EB" opacity=".8" rx=".599"/><rect width="65.257" height="2.395" x="84.514" y="26.217" fill="#E4E5EB" opacity=".8" rx=".599"/><rect width="50.29" height="2.395" x="84.514" y="30.408" fill="#E4E5EB" opacity=".8" rx=".599"/><rect width="20.954" height="5.987" x="84.514" y="39.988" fill="#D5D9DF" opacity=".8" rx=".599"/><rect width="7.783" height="2.395" x="84.514" y="53.16" fill="#DDE1E5" opacity=".8" rx=".599"/><rect width="7.783" height="2.395" x="84.514" y="68.725" fill="#DDE1E5" opacity=".8" rx=".599"/><rect width="28.737" height="2.395" x="95.889" y="53.16" fill="#DDE1E5" opacity=".8" rx=".599"/><rect width="28.737" height="2.395" x="95.889" y="68.725" fill="#DDE1E5" opacity=".8" rx=".599"/><rect width="53.882" height="2.395" x="95.889" y="57.35" fill="#DDE1E5" opacity=".8" rx=".599"/><rect width="53.882" height="2.395" x="95.889" y="72.916" fill="#DDE1E5" opacity=".8" rx=".599"/><rect width="53.882" height="2.395" x="95.889" y="61.541" fill="#DDE1E5" opacity=".8" rx=".599"/><rect width="40.112" height="2.395" x="95.889" y="77.107" fill="#DDE1E5" opacity=".8" rx=".599"/><rect width="7.783" height="2.395" x="84.514" y="57.35" fill="#DDE1E5" opacity=".8" rx=".599"/><rect width="7.783" height="2.395" x="84.514" y="72.916" fill="#DDE1E5" opacity=".8" rx=".599"/><rect width="65.257" height=".599" x="84.514" y="48.969" fill="#E9EAEF" opacity=".8" rx=".299"/><rect width="20.954" height="5.987" x="84.514" y="86.686" fill="#D5D9DF" opacity=".8" rx=".599"/><rect width="7.783" height="2.395" x="84.514" y="99.857" fill="#DDE1E5" opacity=".8" rx=".599"/><rect width="48.494" height="2.395" x="95.889" y="99.857" fill="#DDE1E5" opacity=".8" rx=".599"/><rect width="42.507" height="2.395" x="95.889" y="104.047" fill="#DDE1E5" opacity=".8" rx=".599"/><rect width="65.257" height=".599" x="84.514" y="95.666" fill="#E9EAEF" opacity=".8" rx=".299"/><rect width="20.954" height="5.987" x="84.514" y="113.625" fill="#D5D9DF" opacity=".8" rx=".599"/><rect width="7.783" height="2.395" x="84.514" y="126.797" fill="#DDE1E5" opacity=".8" rx=".599"/><rect width="48.494" height="2.395" x="95.889" y="126.797" fill="#DDE1E5" opacity=".8" rx=".599"/><rect width="42.507" height="2.395" x="95.889" y="130.986" fill="#DDE1E5" opacity=".8" rx=".599"/><rect width="42.507" height="2.395" x="95.889" y="135.178" fill="#DDE1E5" opacity=".8" rx=".599"/><rect width="7.783" height="2.395" x="84.514" y="142.961" fill="#DDE1E5" opacity=".8" rx=".599"/><rect width="48.494" height="2.395" x="95.889" y="142.961" fill="#DDE1E5" opacity=".8" rx=".599"/><rect width="28.737" height="2.395" x="95.889" y="147.152" fill="#DDE1E5" opacity=".8" rx=".599"/><rect width="65.257" height=".599" x="84.514" y="122.605" fill="#E9EAEF" opacity=".8" rx=".299"/></g><rect width="110" height="156" x="44.5" y="11.5" stroke="#DFE4ED" rx="3.5"/><g filter="url(#f)"><path fill="url(#g)" fill-rule="evenodd" d="M103.492 83.12c-.649-.568-1.66-.065-1.6.795l1.66 23.738c.059.84 1.09 1.208 1.668.595l6.301-6.689 9.868-.595c.862-.052 1.228-1.124.578-1.692L103.492 83.12Z" clip-rule="evenodd"/><path stroke="#fff" stroke-width="1.933" d="m111.463 100.594-.382.023-.263.279-6.302 6.69-1.66-23.739L121.331 100l-9.868.595Z"/></g><defs><clipPath id="a"><rect width="99.602" height="141.103" x="12" y="21.682" fill="#fff" rx="3.047" transform="rotate(-5 12 21.682)"/></clipPath><clipPath id="b"><rect width="100.346" height="142.157" x="12" y="21.682" fill="#fff" rx="2.742" transform="rotate(-5 12 21.682)"/></clipPath><clipPath id="c"><rect width="99.602" height="141.103" x="87.78" y="13.002" fill="#fff" rx="3.047" transform="rotate(5 87.78 13.002)"/></clipPath><clipPath id="d"><rect width="100.346" height="142.157" x="87.78" y="13.002" fill="#fff" rx="2.742" transform="rotate(5 87.78 13.002)"/></clipPath><clipPath id="e"><rect width="109" height="155" x="45" y="12" fill="#fff" rx="3"/></clipPath><linearGradient id="g" x1="121.375" x2="103.981" y1="83.403" y2="107.239" gradientUnits="userSpaceOnUse"><stop stop-color="#0C1986"/><stop offset="1" stop-color="#0070D6"/></linearGradient><filter id="f" width="25.563" height="32.116" x="99.313" y="80.302" color-interpolation-filters="sRGB" filterUnits="userSpaceOnUse"><feFlood flood-opacity="0" result="BackgroundImageFix"/><feColorMatrix in="SourceAlpha" result="hardAlpha" values="0 0 0 0 0 0 0 0 0 0 0 0 0 0 0 0 0 0 127 0"/><feOffset dy="1.288"/><feGaussianBlur stdDeviation="1.288"/><feComposite in2="hardAlpha" operator="out"/><feColorMatrix values="0 0 0 0 0.027451 0 0 0 0 0.0784314 0 0 0 0 0.168627 0 0 0 0.1 0"/><feBlend in2="BackgroundImageFix" result="effect1_dropShadow_3498_46810"/><feColorMatrix in="SourceAlpha" result="hardAlpha" values="0 0 0 0 0 0 0 0 0 0 0 0 0 0 0 0 0 0 127 0"/><feOffset/><feGaussianBlur stdDeviation="1.288"/><feComposite in2="hardAlpha" operator="out"/><feColorMatrix values="0 0 0 0 0.027451 0 0 0 0 0.0784314 0 0 0 0 0.168627 0 0 0 0.12 0"/><feBlend in2="effect1_dropShadow_3498_46810" result="effect2_dropShadow_3498_46810"/><feBlend in="SourceGraphic" in2="effect2_dropShadow_3498_46810" result="shape"/></filter></defs></svg>