<svg xmlns="http://www.w3.org/2000/svg" width="200" height="180" fill="none"><g clip-path="url(#a)"><rect width="108.56" height="154.659" x="45.5" y="13.35" stroke="#000" rx="2.493"/><rect width="109" height="156" x="45" y="12.85" fill="#fff" rx="3"/><path fill="#0F7D81" d="M45 12.852h34.724v155.659H45z"/><rect width="25.145" height="9.579" x="49.79" y="18.838" fill="#F4FFFE" opacity=".5" rx=".599"/><rect width="25.145" height="2.993" x="49.79" y="53.563" fill="#F4FFFE" opacity=".5" rx=".599"/><path fill="#F4FFFE" d="M49.79 106.845c0-.331.268-.599.598-.599h18.56v2.994h-18.56a.6.6 0 0 1-.598-.599v-1.796Zm0 37.119c0-.331.268-.599.598-.599h18.56v2.994h-18.56a.599.599 0 0 1-.598-.599v-1.796Zm0-31.731c0-.33.268-.598.598-.598h14.369v2.993H50.388a.598.598 0 0 1-.598-.598v-1.797Zm0 37.12c0-.331.268-.599.598-.599h14.369v2.993H50.388a.598.598 0 0 1-.598-.598v-1.796Zm0-31.731c0-.331.268-.599.598-.599h18.56v2.994h-18.56a.599.599 0 0 1-.598-.599v-1.796Zm0 5.389c0-.331.268-.599.598-.599h15.566v2.994H50.388a.599.599 0 0 1-.598-.599v-1.796Z" opacity=".5"/><path fill="#F4FFFE" d="M68.947 106.246h5.388a.6.6 0 0 1 .6.599v1.796a.6.6 0 0 1-.6.599h-5.388v-2.994Zm0 37.119h5.388a.6.6 0 0 1 .6.599v1.796a.599.599 0 0 1-.6.599h-5.388v-2.994Zm-4.19-31.73h9.579a.6.6 0 0 1 .599.598v1.797a.6.6 0 0 1-.6.598h-9.578v-2.993Zm0 37.119h9.579a.6.6 0 0 1 .599.599v1.796a.6.6 0 0 1-.6.598h-9.578v-2.993Zm4.19-31.731h5.388a.6.6 0 0 1 .6.599v1.796a.599.599 0 0 1-.6.599h-5.388v-2.994Zm-2.993 5.389h8.382c.33 0 .598.268.598.599v1.796a.599.599 0 0 1-.598.599h-8.382v-2.994Z" opacity=".25"/><rect width="25.145" height="2.993" x="49.79" y="66.734" fill="#F4FFFE" opacity=".5" rx=".599"/><rect width="25.145" height="2.993" x="49.79" y="79.904" fill="#F4FFFE" opacity=".5" rx=".599"/><rect width="14.967" height="2.993" x="49.79" y="58.951" fill="#F4FFFE" opacity=".5" rx=".599"/><rect width="14.967" height="2.993" x="49.79" y="72.121" fill="#F4FFFE" opacity=".5" rx=".599"/><rect width="14.967" height="2.993" x="49.79" y="85.293" fill="#F4FFFE" opacity=".5" rx=".599"/><path fill="#004955" d="M45 40.391h34.724v8.382H45zm0 52.685h34.724v8.382H45zm0 37.117h34.724v8.382H45z" opacity=".5"/><rect width="25.145" height="4.79" x="49.79" y="32.01" fill="#EBFAF8" opacity=".5" rx=".599"/><rect width="65.257" height="2.395" x="84.514" y="18.836" fill="#E4E5EB" opacity=".8" rx=".599"/><rect width="65.257" height="2.395" x="84.514" y="23.027" fill="#E4E5EB" opacity=".8" rx=".599"/><rect width="65.257" height="2.395" x="84.514" y="27.217" fill="#E4E5EB" opacity=".8" rx=".599"/><rect width="50.29" height="2.395" x="84.514" y="31.408" fill="#E4E5EB" opacity=".8" rx=".599"/><rect width="20.954" height="5.987" x="84.514" y="40.988" fill="#D5D9DF" opacity=".8" rx=".599"/><rect width="7.783" height="2.395" x="84.514" y="54.16" fill="#DDE1E5" opacity=".8" rx=".599"/><rect width="7.783" height="2.395" x="84.514" y="69.725" fill="#DDE1E5" opacity=".8" rx=".599"/><rect width="28.737" height="2.395" x="95.889" y="54.16" fill="#DDE1E5" opacity=".8" rx=".599"/><rect width="28.737" height="2.395" x="95.889" y="69.725" fill="#DDE1E5" opacity=".8" rx=".599"/><rect width="53.882" height="2.395" x="95.889" y="58.35" fill="#DDE1E5" opacity=".8" rx=".599"/><rect width="53.882" height="2.395" x="95.889" y="73.916" fill="#DDE1E5" opacity=".8" rx=".599"/><rect width="53.882" height="2.395" x="95.889" y="62.541" fill="#DDE1E5" opacity=".8" rx=".599"/><rect width="40.112" height="2.395" x="95.889" y="78.107" fill="#DDE1E5" opacity=".8" rx=".599"/><rect width="7.783" height="2.395" x="84.514" y="58.35" fill="#DDE1E5" opacity=".8" rx=".599"/><rect width="7.783" height="2.395" x="84.514" y="73.916" fill="#DDE1E5" opacity=".8" rx=".599"/><rect width="65.257" height=".599" x="84.514" y="49.969" fill="#E9EAEF" opacity=".8" rx=".299"/><rect width="20.954" height="5.987" x="84.514" y="87.686" fill="#D5D9DF" opacity=".8" rx=".599"/><rect width="7.783" height="2.395" x="84.514" y="100.857" fill="#DDE1E5" opacity=".8" rx=".599"/><rect width="48.494" height="2.395" x="95.889" y="100.857" fill="#DDE1E5" opacity=".8" rx=".599"/><rect width="42.507" height="2.395" x="95.889" y="105.047" fill="#DDE1E5" opacity=".8" rx=".599"/><rect width="65.257" height=".599" x="84.514" y="96.666" fill="#E9EAEF" opacity=".8" rx=".299"/><rect width="20.954" height="5.987" x="84.514" y="114.625" fill="#D5D9DF" opacity=".8" rx=".599"/><rect width="7.783" height="2.395" x="84.514" y="127.797" fill="#DDE1E5" opacity=".8" rx=".599"/><rect width="48.494" height="2.395" x="95.889" y="127.797" fill="#DDE1E5" opacity=".8" rx=".599"/><rect width="42.507" height="2.395" x="95.889" y="131.986" fill="#DDE1E5" opacity=".8" rx=".599"/><rect width="42.507" height="2.395" x="95.889" y="136.178" fill="#DDE1E5" opacity=".8" rx=".599"/><rect width="7.783" height="2.395" x="84.514" y="143.961" fill="#DDE1E5" opacity=".8" rx=".599"/><rect width="48.494" height="2.395" x="95.889" y="143.961" fill="#DDE1E5" opacity=".8" rx=".599"/><rect width="28.737" height="2.395" x="95.889" y="148.152" fill="#DDE1E5" opacity=".8" rx=".599"/><rect width="65.257" height=".599" x="84.514" y="123.605" fill="#E9EAEF" opacity=".8" rx=".299"/></g><rect width="110" height="156" x="44.5" y="12.5" stroke="#DFE4ED" rx="3.5"/><rect width="107" height="39" x="91.5" y="44.5" fill="#F4F9FD" rx="8.5"/><rect width="107" height="39" x="91.5" y="44.5" stroke="#0070D6" rx="8.5"/><rect width="52" height="2" x="100" y="55" fill="#CCE2F7" rx="1"/><rect width="52" height="2" x="100" y="71" fill="#CCE2F7" rx="1"/><circle cx="116" cy="56" r="5" fill="#0070D6"/><circle cx="136" cy="72" r="5" fill="#0070D6"/><path fill="#0070D6" d="M171.283 73.688a39.353 39.353 0 0 0-.715-2.103l-.744-2.159h-7.728a93.17 93.17 0 0 1-.773 2.16 64.37 64.37 0 0 0-.686 2.102H156c.744-2.122 1.45-4.082 2.118-5.881.668-1.8 1.316-3.495 1.946-5.085a258.275 258.275 0 0 1 1.889-4.517c.63-1.44 1.278-2.841 1.946-4.205h4.265a146.17 146.17 0 0 1 1.917 4.205c.63 1.42 1.26 2.926 1.889 4.517a171.8 171.8 0 0 1 1.975 5.085c.668 1.8 1.374 3.76 2.118 5.88h-4.78Zm-5.352-15.228c-.095.284-.238.673-.429 1.165a799.9 799.9 0 0 0-.658 1.705c-.248.644-.525 1.354-.83 2.13-.286.777-.582 1.591-.888 2.443h5.639a280.18 280.18 0 0 0-.888-2.443 57.335 57.335 0 0 0-.829-2.13l-.659-1.705c-.191-.492-.343-.88-.458-1.165Zm17.858 12.273c.42 0 .821-.01 1.202-.029.382-.018.687-.047.916-.085v-3.21a7.863 7.863 0 0 0-.772-.114 8.685 8.685 0 0 0-.945-.056c-.401 0-.782.028-1.145.085a2.717 2.717 0 0 0-.916.255 1.587 1.587 0 0 0-.629.54c-.153.228-.229.512-.229.853 0 .663.219 1.127.658 1.392.458.246 1.078.369 1.86.369Zm-.343-12.386c1.259 0 2.309.142 3.148.426.84.284 1.508.691 2.004 1.221.515.53.877 1.175 1.087 1.932.21.758.315 1.6.315 2.528v8.807c-.611.133-1.46.285-2.547.455-1.088.19-2.404.284-3.95.284-.973 0-1.86-.085-2.662-.256-.782-.17-1.459-.445-2.032-.823a3.95 3.95 0 0 1-1.316-1.535c-.305-.625-.458-1.392-.458-2.3 0-.872.172-1.61.515-2.217a4.186 4.186 0 0 1 1.431-1.448 6.2 6.2 0 0 1 2.032-.768 10.87 10.87 0 0 1 2.376-.255c.553 0 1.04.028 1.459.085.439.038.792.095 1.059.17v-.397c0-.72-.219-1.298-.658-1.733-.439-.436-1.202-.654-2.29-.654-.725 0-1.44.057-2.146.17-.706.096-1.317.237-1.832.427l-.544-3.41c.248-.075.554-.15.916-.226.382-.095.792-.17 1.231-.228.439-.075.897-.132 1.374-.17.496-.057.992-.085 1.488-.085Z"/><rect width="35" height="101" x="36.5" y="152.5" fill="#fff" rx="7.5" transform="rotate(180 36.5 152.5)"/><rect width="35" height="101" x="36.5" y="152.5" stroke="#DFE4ED" rx="7.5" transform="rotate(180 36.5 152.5)"/><rect width="24" height="24" x="7" y="145" fill="#016878" rx="12" transform="rotate(-90 7 145)"/><rect width="24" height="24" x="7" y="114" fill="#1A409A" rx="12" transform="rotate(-90 7 114)"/><rect width="24" height="24" x="7" y="83" fill="#ED9E4E" rx="12" transform="rotate(-90 7 83)"/><g filter="url(#b)"><path fill="url(#c)" fill-rule="evenodd" d="M118.492 73.12c-.649-.568-1.66-.065-1.6.795l1.66 23.738c.059.84 1.09 1.208 1.668.595l6.301-6.69 9.868-.594c.862-.052 1.228-1.124.578-1.692L118.492 73.12Z" clip-rule="evenodd"/><path stroke="#fff" stroke-width="1.933" d="m126.463 90.594-.382.023-.263.28-6.302 6.689-1.66-23.739L136.331 90l-9.868.595Z"/></g><defs><linearGradient id="c" x1="136.375" x2="118.981" y1="73.403" y2="97.239" gradientUnits="userSpaceOnUse"><stop stop-color="#0C1986"/><stop offset="1" stop-color="#0070D6"/></linearGradient><clipPath id="a"><rect width="109" height="155" x="45" y="13" fill="#fff" rx="3"/></clipPath><filter id="b" width="25.563" height="32.116" x="114.313" y="70.302" color-interpolation-filters="sRGB" filterUnits="userSpaceOnUse"><feFlood flood-opacity="0" result="BackgroundImageFix"/><feColorMatrix in="SourceAlpha" result="hardAlpha" values="0 0 0 0 0 0 0 0 0 0 0 0 0 0 0 0 0 0 127 0"/><feOffset dy="1.288"/><feGaussianBlur stdDeviation="1.288"/><feComposite in2="hardAlpha" operator="out"/><feColorMatrix values="0 0 0 0 0.027451 0 0 0 0 0.0784314 0 0 0 0 0.168627 0 0 0 0.1 0"/><feBlend in2="BackgroundImageFix" result="effect1_dropShadow_3498_47428"/><feColorMatrix in="SourceAlpha" result="hardAlpha" values="0 0 0 0 0 0 0 0 0 0 0 0 0 0 0 0 0 0 127 0"/><feOffset/><feGaussianBlur stdDeviation="1.288"/><feComposite in2="hardAlpha" operator="out"/><feColorMatrix values="0 0 0 0 0.027451 0 0 0 0 0.0784314 0 0 0 0 0.168627 0 0 0 0.12 0"/><feBlend in2="effect1_dropShadow_3498_47428" result="effect2_dropShadow_3498_47428"/><feBlend in="SourceGraphic" in2="effect2_dropShadow_3498_47428" result="shape"/></filter></defs></svg>