<svg xmlns="http://www.w3.org/2000/svg" width="200" height="180" fill="none"><g clip-path="url(#a)"><rect width="108.56" height="154.659" x="45.5" y="13.35" stroke="#000" rx="2.493"/><rect width="109" height="156" x="45" y="12.85" fill="#fff" rx="3"/><path fill="#0F7D81" d="M45 12.852h34.724v155.659H45z"/><rect width="25.145" height="9.579" x="49.79" y="18.838" fill="#F4FFFE" opacity=".5" rx=".599"/><rect width="25.145" height="2.993" x="49.79" y="53.563" fill="#F4FFFE" opacity=".5" rx=".599"/><path fill="#F4FFFE" d="M49.79 106.845c0-.331.268-.599.598-.599h18.56v2.994h-18.56a.6.6 0 0 1-.598-.599v-1.796Zm0 37.119c0-.331.268-.599.598-.599h18.56v2.994h-18.56a.599.599 0 0 1-.598-.599v-1.796Zm0-31.731c0-.33.268-.598.598-.598h14.369v2.993H50.388a.598.598 0 0 1-.598-.598v-1.797Zm0 37.12c0-.331.268-.599.598-.599h14.369v2.993H50.388a.598.598 0 0 1-.598-.598v-1.796Zm0-31.731c0-.331.268-.599.598-.599h18.56v2.994h-18.56a.599.599 0 0 1-.598-.599v-1.796Zm0 5.389c0-.331.268-.599.598-.599h15.566v2.994H50.388a.599.599 0 0 1-.598-.599v-1.796Z" opacity=".5"/><path fill="#F4FFFE" d="M68.947 106.246h5.388a.6.6 0 0 1 .6.599v1.796a.6.6 0 0 1-.6.599h-5.388v-2.994Zm0 37.119h5.388a.6.6 0 0 1 .6.599v1.796a.599.599 0 0 1-.6.599h-5.388v-2.994Zm-4.19-31.73h9.579a.6.6 0 0 1 .599.598v1.797a.6.6 0 0 1-.6.598h-9.578v-2.993Zm0 37.119h9.579a.6.6 0 0 1 .599.599v1.796a.6.6 0 0 1-.6.598h-9.578v-2.993Zm4.19-31.731h5.388a.6.6 0 0 1 .6.599v1.796a.599.599 0 0 1-.6.599h-5.388v-2.994Zm-2.993 5.389h8.382c.33 0 .598.268.598.599v1.796a.599.599 0 0 1-.598.599h-8.382v-2.994Z" opacity=".25"/><rect width="25.145" height="2.993" x="49.79" y="66.734" fill="#F4FFFE" opacity=".5" rx=".599"/><rect width="25.145" height="2.993" x="49.79" y="79.904" fill="#F4FFFE" opacity=".5" rx=".599"/><rect width="14.967" height="2.993" x="49.79" y="58.951" fill="#F4FFFE" opacity=".5" rx=".599"/><rect width="14.967" height="2.993" x="49.79" y="72.121" fill="#F4FFFE" opacity=".5" rx=".599"/><rect width="14.967" height="2.993" x="49.79" y="85.293" fill="#F4FFFE" opacity=".5" rx=".599"/><path fill="#004955" d="M45 40.391h34.724v8.382H45zm0 52.685h34.724v8.382H45zm0 37.117h34.724v8.382H45z" opacity=".5"/><rect width="25.145" height="4.79" x="49.79" y="32.01" fill="#EBFAF8" opacity=".5" rx=".599"/><rect width="65.257" height="2.395" x="84.514" y="18.836" fill="#E4E5EB" opacity=".8" rx=".599"/><rect width="65.257" height="2.395" x="84.514" y="23.027" fill="#E4E5EB" opacity=".8" rx=".599"/><rect width="65.257" height="2.395" x="84.514" y="27.217" fill="#E4E5EB" opacity=".8" rx=".599"/><rect width="50.29" height="2.395" x="84.514" y="31.408" fill="#E4E5EB" opacity=".8" rx=".599"/><rect width="20.954" height="5.987" x="84.514" y="40.988" fill="#D5D9DF" opacity=".8" rx=".599"/><rect width="7.783" height="2.395" x="84.514" y="54.16" fill="#DDE1E5" opacity=".8" rx=".599"/><rect width="7.783" height="2.395" x="84.514" y="69.725" fill="#DDE1E5" opacity=".8" rx=".599"/><rect width="28.737" height="2.395" x="95.889" y="54.16" fill="#DDE1E5" opacity=".8" rx=".599"/><rect width="28.737" height="2.395" x="95.889" y="69.725" fill="#DDE1E5" opacity=".8" rx=".599"/><rect width="53.882" height="2.395" x="95.889" y="58.35" fill="#DDE1E5" opacity=".8" rx=".599"/><rect width="53.882" height="2.395" x="95.889" y="73.916" fill="#DDE1E5" opacity=".8" rx=".599"/><rect width="53.882" height="2.395" x="95.889" y="62.541" fill="#DDE1E5" opacity=".8" rx=".599"/><rect width="40.112" height="2.395" x="95.889" y="78.107" fill="#DDE1E5" opacity=".8" rx=".599"/><rect width="7.783" height="2.395" x="84.514" y="58.35" fill="#DDE1E5" opacity=".8" rx=".599"/><rect width="7.783" height="2.395" x="84.514" y="73.916" fill="#DDE1E5" opacity=".8" rx=".599"/><rect width="65.257" height=".599" x="84.514" y="49.969" fill="#E9EAEF" opacity=".8" rx=".299"/><rect width="20.954" height="5.987" x="84.514" y="87.686" fill="#D5D9DF" opacity=".8" rx=".599"/><rect width="7.783" height="2.395" x="84.514" y="100.857" fill="#DDE1E5" opacity=".8" rx=".599"/><rect width="48.494" height="2.395" x="95.889" y="100.857" fill="#DDE1E5" opacity=".8" rx=".599"/><rect width="42.507" height="2.395" x="95.889" y="105.047" fill="#DDE1E5" opacity=".8" rx=".599"/><rect width="65.257" height=".599" x="84.514" y="96.666" fill="#E9EAEF" opacity=".8" rx=".299"/><rect width="20.954" height="5.987" x="84.514" y="114.625" fill="#D5D9DF" opacity=".8" rx=".599"/><rect width="7.783" height="2.395" x="84.514" y="127.797" fill="#DDE1E5" opacity=".8" rx=".599"/><rect width="48.494" height="2.395" x="95.889" y="127.797" fill="#DDE1E5" opacity=".8" rx=".599"/><rect width="42.507" height="2.395" x="95.889" y="131.986" fill="#DDE1E5" opacity=".8" rx=".599"/><rect width="42.507" height="2.395" x="95.889" y="136.178" fill="#DDE1E5" opacity=".8" rx=".599"/><rect width="7.783" height="2.395" x="84.514" y="143.961" fill="#DDE1E5" opacity=".8" rx=".599"/><rect width="48.494" height="2.395" x="95.889" y="143.961" fill="#DDE1E5" opacity=".8" rx=".599"/><rect width="28.737" height="2.395" x="95.889" y="148.152" fill="#DDE1E5" opacity=".8" rx=".599"/><rect width="65.257" height=".599" x="84.514" y="123.605" fill="#E9EAEF" opacity=".8" rx=".299"/></g><rect width="110" height="156" x="44.5" y="12.5" stroke="#DFE4ED" rx="3.5"/><rect width="133" height="46" x="65.5" y="92.5" fill="#F4F9FD" rx="8.5"/><rect width="133" height="46" x="65.5" y="92.5" stroke="#0070D6" rx="8.5"/><rect width="30" height="30" x="72" y="100.5" fill="#0070D6" rx="15"/><g clip-path="url(#b)"><path fill="#fff" d="M78 115.5a9 9 0 0 1 9-9 9 9 0 0 1 9 9 9 9 0 0 1-9 9 9 9 0 0 1-9-9Zm9 3.937a.841.841 0 0 0 .844-.843v-2.25h2.25a.842.842 0 0 0 .844-.844.842.842 0 0 0-.844-.844h-2.25v-2.25a.842.842 0 0 0-.844-.844.842.842 0 0 0-.844.844v2.25h-2.25a.842.842 0 0 0-.844.844c0 .468.377.844.844.844h2.25v2.25c0 .467.376.843.844.843Z"/></g><circle cx="114" cy="107.674" r="4" fill="#0070D6"/><rect width="65" height="5" x="122" y="105.174" fill="#0070D6" rx="2.5"/><rect width="82" height="4" x="110" y="116.047" fill="#CCE2F7" rx="2"/><rect width="80" height="4" x="110" y="123.326" fill="#CCE2F7" rx="2"/><rect width="28" height="28" x="164" y="46" fill="#2EA793" rx="14"/><path fill="#fff" d="M169.444 60A8.555 8.555 0 0 1 178 51.446a8.554 8.554 0 0 1 8.555 8.556A8.554 8.554 0 0 1 178 68.556a8.555 8.555 0 0 1-8.556-8.555Zm12.426-1.476a.938.938 0 0 0 0-1.324.937.937 0 0 0-1.323 0l-3.617 3.616-1.477-1.477a.938.938 0 0 0-1.323 0 .939.939 0 0 0 0 1.324l2.139 2.139a.937.937 0 0 0 1.323 0l4.278-4.278Z"/><rect width="24" height="24" x="5.5" y="69.5" fill="#2EA793" rx="12"/><path fill="#fff" d="M10.166 81.501a7.333 7.333 0 0 1 7.334-7.333 7.333 7.333 0 0 1 7.333 7.333 7.333 7.333 0 0 1-7.333 7.334 7.333 7.333 0 0 1-7.334-7.334Zm10.651-1.266a.804.804 0 0 0 0-1.134.804.804 0 0 0-1.134 0l-3.1 3.1-1.266-1.267a.804.804 0 0 0-1.134 0 .804.804 0 0 0 0 1.135l1.833 1.833a.804.804 0 0 0 1.134 0l3.667-3.667Z"/><rect width="30" height="30" x="7.5" y="32.5" fill="#2EA793" rx="15"/><path fill="#fff" d="M13.334 47.5a9.166 9.166 0 0 1 9.166-9.166 9.166 9.166 0 0 1 9.167 9.167 9.166 9.166 0 0 1-9.167 9.166 9.166 9.166 0 0 1-9.166-9.166Zm13.313-1.582c.39-.39.39-1.028 0-1.418a1.005 1.005 0 0 0-1.418 0l-3.875 3.874-1.582-1.582a1.005 1.005 0 0 0-1.418 0c-.39.39-.39 1.027 0 1.418l2.291 2.291c.39.39 1.028.39 1.418 0l4.584-4.583Z"/><g filter="url(#c)"><path fill="url(#d)" fill-rule="evenodd" d="M101.492 127.12c-.649-.568-1.66-.065-1.6.795l1.66 23.738c.059.84 1.09 1.208 1.668.595l6.301-6.689 9.868-.595c.862-.052 1.228-1.124.578-1.692l-18.475-16.152Z" clip-rule="evenodd"/><path stroke="#fff" stroke-width="1.933" d="m109.463 144.594-.382.023-.263.279-6.302 6.69-1.66-23.739 18.475 16.152-9.868.595Z"/></g><defs><clipPath id="a"><rect width="109" height="155" x="45" y="13" fill="#fff" rx="3"/></clipPath><clipPath id="b"><path fill="#fff" d="M78 106.5h18v18H78z"/></clipPath><linearGradient id="d" x1="119.375" x2="101.981" y1="127.403" y2="151.239" gradientUnits="userSpaceOnUse"><stop stop-color="#0C1986"/><stop offset="1" stop-color="#0070D6"/></linearGradient><filter id="c" width="25.563" height="32.116" x="97.313" y="124.302" color-interpolation-filters="sRGB" filterUnits="userSpaceOnUse"><feFlood flood-opacity="0" result="BackgroundImageFix"/><feColorMatrix in="SourceAlpha" result="hardAlpha" values="0 0 0 0 0 0 0 0 0 0 0 0 0 0 0 0 0 0 127 0"/><feOffset dy="1.288"/><feGaussianBlur stdDeviation="1.288"/><feComposite in2="hardAlpha" operator="out"/><feColorMatrix values="0 0 0 0 0.027451 0 0 0 0 0.0784314 0 0 0 0 0.168627 0 0 0 0.1 0"/><feBlend in2="BackgroundImageFix" result="effect1_dropShadow_3498_47208"/><feColorMatrix in="SourceAlpha" result="hardAlpha" values="0 0 0 0 0 0 0 0 0 0 0 0 0 0 0 0 0 0 127 0"/><feOffset/><feGaussianBlur stdDeviation="1.288"/><feComposite in2="hardAlpha" operator="out"/><feColorMatrix values="0 0 0 0 0.027451 0 0 0 0 0.0784314 0 0 0 0 0.168627 0 0 0 0.12 0"/><feBlend in2="effect1_dropShadow_3498_47208" result="effect2_dropShadow_3498_47208"/><feBlend in="SourceGraphic" in2="effect2_dropShadow_3498_47208" result="shape"/></filter></defs></svg>