<svg xmlns="http://www.w3.org/2000/svg" width="200" height="180" fill="none"><rect width="110" height="156" x="44.5" y="11.5" stroke="#DFE4ED" rx="3.5"/><g clip-path="url(#a)"><rect width="109" height="156" x="45" y="11.85" fill="#fff" rx="3"/><path fill="#1A409A" d="M45 11.852h34.677V167.3H45z"/><rect width="25.111" height="9.566" x="49.783" y="17.83" fill="#BDD6FD" opacity=".5" rx=".598"/><rect width="25.111" height="2.989" x="49.783" y="52.508" fill="#BDD6FD" opacity=".5" rx=".598"/><path fill="#BDD6FD" d="M49.783 105.719c0-.33.268-.598.598-.598h18.534v2.989H50.381a.597.597 0 0 1-.598-.597v-1.794Zm0 37.068c0-.33.268-.598.598-.598h18.534v2.99H50.381a.598.598 0 0 1-.598-.598v-1.794Zm0-31.687c0-.33.268-.598.598-.598h14.35v2.989H50.38a.597.597 0 0 1-.598-.598V111.1Zm0 37.068c0-.33.268-.598.598-.598h14.35v2.99H50.38a.598.598 0 0 1-.598-.598v-1.794Zm0-31.687c0-.331.268-.598.598-.598h18.534v2.989H50.381a.597.597 0 0 1-.598-.598v-1.793Zm0 5.381c0-.331.268-.598.598-.598h15.545v2.989H50.38a.598.598 0 0 1-.598-.598v-1.793Z" opacity=".5"/><path fill="#BDD6FD" d="M68.915 105.121h5.38c.331 0 .599.268.599.598v1.794c0 .33-.268.597-.598.597h-5.381v-2.989Zm0 37.068h5.38c.331 0 .599.268.599.598v1.794c0 .33-.268.598-.598.598h-5.381v-2.99Zm-4.185-31.687h9.566c.33 0 .598.268.598.598v1.793a.597.597 0 0 1-.598.598H64.73v-2.989Zm0 37.068h9.566c.33 0 .598.268.598.598v1.794c0 .33-.268.598-.598.598H64.73v-2.99Zm4.185-31.687h5.38c.331 0 .599.267.599.598v1.793a.597.597 0 0 1-.598.598h-5.381v-2.989Zm-2.989 5.381h8.37c.33 0 .598.267.598.598v1.793c0 .33-.268.598-.598.598h-8.37v-2.989Z" opacity=".25"/><rect width="25.111" height="2.989" x="49.783" y="65.66" fill="#BDD6FD" opacity=".5" rx=".598"/><rect width="25.111" height="2.989" x="49.783" y="78.814" fill="#BDD6FD" opacity=".5" rx=".598"/><rect width="14.947" height="2.989" x="49.783" y="57.889" fill="#BDD6FD" opacity=".5" rx=".598"/><rect width="14.947" height="2.989" x="49.783" y="71.041" fill="#BDD6FD" opacity=".5" rx=".598"/><rect width="14.947" height="2.989" x="49.783" y="84.195" fill="#BDD6FD" opacity=".5" rx=".598"/><path fill="#15337B" d="M45 39.353h34.677v8.37H45zm0 52.614h34.677v8.37H45zm0 37.068h34.677v8.37H45z" opacity=".75"/><rect width="25.111" height="4.783" x="49.783" y="30.984" fill="#4365B3" rx=".598"/><rect width="65.169" height="2.392" x="84.46" y="17.828" fill="#E4E5EB" opacity=".8" rx=".598"/><rect width="65.169" height="2.392" x="84.46" y="22.014" fill="#E4E5EB" opacity=".8" rx=".598"/><rect width="65.169" height="2.392" x="84.46" y="26.199" fill="#E4E5EB" opacity=".8" rx=".598"/><rect width="50.222" height="2.392" x="84.46" y="30.383" fill="#E4E5EB" opacity=".8" rx=".598"/><rect width="20.926" height="5.979" x="84.46" y="39.949" fill="#D5D9DF" opacity=".8" rx=".598"/><rect width="7.772" height="2.392" x="84.46" y="53.103" fill="#DDE1E5" opacity=".8" rx=".598"/><rect width="7.772" height="2.392" x="84.46" y="68.647" fill="#DDE1E5" opacity=".8" rx=".598"/><rect width="28.698" height="2.392" x="95.82" y="53.103" fill="#DDE1E5" opacity=".8" rx=".598"/><rect width="28.698" height="2.392" x="95.82" y="68.647" fill="#DDE1E5" opacity=".8" rx=".598"/><rect width="53.809" height="2.392" x="95.82" y="57.287" fill="#DDE1E5" opacity=".8" rx=".598"/><rect width="53.809" height="2.392" x="95.82" y="72.832" fill="#DDE1E5" opacity=".8" rx=".598"/><rect width="53.809" height="2.392" x="95.82" y="61.473" fill="#DDE1E5" opacity=".8" rx=".598"/><rect width="40.058" height="2.392" x="95.82" y="77.018" fill="#DDE1E5" opacity=".8" rx=".598"/><rect width="7.772" height="2.392" x="84.46" y="57.287" fill="#DDE1E5" opacity=".8" rx=".598"/><rect width="7.772" height="2.392" x="84.46" y="72.832" fill="#DDE1E5" opacity=".8" rx=".598"/><rect width="65.169" height=".598" x="84.46" y="48.918" fill="#E9EAEF" opacity=".8" rx=".299"/><rect width="20.926" height="5.979" x="84.46" y="86.584" fill="#D5D9DF" opacity=".8" rx=".598"/><rect width="7.772" height="2.392" x="84.46" y="99.738" fill="#DDE1E5" opacity=".8" rx=".598"/><rect width="48.428" height="2.392" x="95.82" y="99.738" fill="#DDE1E5" opacity=".8" rx=".598"/><rect width="42.449" height="2.392" x="95.82" y="103.922" fill="#DDE1E5" opacity=".8" rx=".598"/><rect width="65.169" height=".598" x="84.46" y="95.553" fill="#E9EAEF" opacity=".8" rx=".299"/><rect width="20.926" height="5.979" x="84.46" y="113.488" fill="#D5D9DF" opacity=".8" rx=".598"/><rect width="7.772" height="2.392" x="84.46" y="126.643" fill="#DDE1E5" opacity=".8" rx=".598"/><rect width="48.428" height="2.392" x="95.82" y="126.643" fill="#DDE1E5" opacity=".8" rx=".598"/><rect width="42.449" height="2.392" x="95.82" y="130.826" fill="#DDE1E5" opacity=".8" rx=".598"/><rect width="42.449" height="2.392" x="95.82" y="135.012" fill="#DDE1E5" opacity=".8" rx=".598"/><rect width="7.772" height="2.392" x="84.46" y="142.785" fill="#DDE1E5" opacity=".8" rx=".598"/><rect width="48.428" height="2.392" x="95.82" y="142.785" fill="#DDE1E5" opacity=".8" rx=".598"/><rect width="28.698" height="2.392" x="95.82" y="146.969" fill="#DDE1E5" opacity=".8" rx=".598"/><rect width="65.169" height=".598" x="84.46" y="122.457" fill="#E9EAEF" opacity=".8" rx=".299"/></g><mask id="b" width="57" height="80" x="137" y="69" fill="#000" maskUnits="userSpaceOnUse"><path fill="#fff" d="M137 69h57v80h-57z"/><path fill-rule="evenodd" d="M182.276 70H146a8 8 0 0 0-8 8v62a8 8 0 0 0 8 8h39a8 8 0 0 0 8-8V80.724L182.276 70Z" clip-rule="evenodd"/></mask><path fill="#F4F8FD" fill-rule="evenodd" d="M182.276 70H146a8 8 0 0 0-8 8v62a8 8 0 0 0 8 8h39a8 8 0 0 0 8-8V80.724L182.276 70Z" clip-rule="evenodd"/><path fill="#0070D6" d="m182.276 70 .707-.707-.293-.293h-.414v1ZM193 80.724h1v-.414l-.293-.293-.707.707ZM146 71h36.276v-2H146v2Zm-7 7a7 7 0 0 1 7-7v-2a9 9 0 0 0-9 9h2Zm0 62V78h-2v62h2Zm7 7a7 7 0 0 1-7-7h-2a9 9 0 0 0 9 9v-2Zm39 0h-39v2h39v-2Zm7-7a7 7 0 0 1-7 7v2a9 9 0 0 0 9-9h-2Zm0-59.276V140h2V80.724h-2Zm1.707-.707-10.724-10.724-1.414 1.414 10.724 10.724 1.414-1.414Z" mask="url(#b)"/><rect width="36.5" height="36.5" x="147.98" y="84.743" fill="#fff" fill-opacity=".7" stroke="#A4CFF6" stroke-width=".913" rx="6.844"/><g clip-path="url(#c)"><path fill="#0070D6" d="m175.679 108.001-2.111.002 1.889 2.224-17.911.012 1.89-2.227-2.113.002-2.132 2.51a.81.81 0 0 0 .181 1.2c.129.083.28.127.434.126l21.39-.014a.802.802 0 0 0 .73-.467.81.81 0 0 0-.117-.86l-2.13-2.508Zm-11.171-16.85v4.761h-3.841l5.833 5.858 5.834-5.858h-3.842V91.15h-3.984Zm7.11 7.434-1.599 1.606h1.15l4.288 5.051-17.911.012 4.298-5.063h1.137l-1.6-1.605a.806.806 0 0 0-.524.28l-5.665 6.673a.793.793 0 0 0-.184.413.803.803 0 0 0 .798.913l21.39-.015a.802.802 0 0 0 .73-.467.798.798 0 0 0-.117-.859l-5.653-6.659a.806.806 0 0 0-.538-.28Z"/></g><path fill="#DCEAF8" d="M138 129h55v11a8 8 0 0 1-8 8h-39a8 8 0 0 1-8-8v-11Z"/><path fill="#0070D6" d="M153.781 142.5v-1.493h1.494v1.493h-1.494Zm3.04 0v-7.791h2.524c.957 0 1.58.039 1.871.117.446.117.82.372 1.121.765.301.39.452.895.452 1.515 0 .478-.087.88-.26 1.206a2.15 2.15 0 0 1-.665.771 2.285 2.285 0 0 1-.813.367c-.375.074-.919.111-1.631.111h-1.026v2.939h-1.573Zm1.573-6.473v2.211h.861c.62 0 1.034-.041 1.244-.122a1.032 1.032 0 0 0 .669-.989c0-.283-.083-.517-.25-.701a1.087 1.087 0 0 0-.632-.346c-.188-.035-.565-.053-1.132-.053h-.76Zm5.681-1.318h2.875c.648 0 1.143.05 1.483.149.457.135.848.374 1.174.717.326.344.574.766.744 1.265.17.496.255 1.109.255 1.839 0 .641-.079 1.194-.239 1.658-.195.567-.473 1.026-.834 1.376-.273.266-.641.473-1.106.622-.347.11-.811.165-1.392.165h-2.96v-7.791Zm1.573 1.318v5.16h1.175c.439 0 .756-.024.951-.074.255-.064.466-.172.632-.324.17-.153.308-.402.415-.75.106-.35.159-.827.159-1.429 0-.602-.053-1.065-.159-1.387-.107-.323-.255-.574-.447-.755a1.494 1.494 0 0 0-.728-.366c-.219-.05-.65-.075-1.291-.075h-.707Zm6.308 6.473v-7.791h5.341v1.318h-3.768v1.844h3.253v1.318h-3.253v3.311h-1.573Z"/><path fill="#0070D6" fill-rule="evenodd" d="M182.278 70.002h-.063v8.843a2.721 2.721 0 0 0 2.721 2.72h8.843v-.061l-11.501-11.502Z" clip-rule="evenodd"/><mask id="d" fill="#fff"><path fill-rule="evenodd" d="M46.276 40H10a8 8 0 0 0-8 8v61.547a8 8 0 0 0 8 8h39.78a8 8 0 0 0 8-8.001V51.503L46.275 40Z" clip-rule="evenodd"/></mask><path fill="#fff" fill-rule="evenodd" d="M46.276 40H10a8 8 0 0 0-8 8v61.547a8 8 0 0 0 8 8h39.78a8 8 0 0 0 8-8.001V51.503L46.275 40Z" clip-rule="evenodd"/><path fill="#DFE4ED" d="m46.276 40 .707-.707L46.69 39h-.414v1ZM57.78 51.503h1v-.414l-.293-.293-.707.707ZM10 41h36.276v-2H10v2Zm-7 7a7 7 0 0 1 7-7v-2a9 9 0 0 0-9 9h2Zm0 61.547V48H1v61.547h2Zm7 7a7 7 0 0 1-7-7H1a9 9 0 0 0 9 9v-2Zm39.78 0H10v2h39.78v-2Zm7-7.001a7 7 0 0 1-7 7.001v2a9 9 0 0 0 9-9.001h-2Zm0-58.043v58.043h2V51.503h-2Zm1.706-.707L46.983 39.293l-1.414 1.414L57.072 52.21l1.414-1.414Z" mask="url(#d)"/><rect width="36.5" height="36.5" x="11.979" y="54.741" fill="#EFF2FA" stroke="#D5D8E3" stroke-width=".913" rx="6.844"/><path fill="#ACB3C1" d="m24.134 80.747-3.486-15.513h3.018l2.2 10.656 2.67-10.656h3.506l2.56 10.836 2.24-10.836h2.969l-3.546 15.513h-3.127L30.229 69.15l-2.898 11.597h-3.197Z"/><path fill="#D5D8E3" fill-rule="evenodd" d="M46.277 40h-.062v8.843a2.721 2.721 0 0 0 2.72 2.721h8.844v-.063L46.277 40Z" clip-rule="evenodd"/><path fill="#fff" fill-opacity=".6" d="M3 98h54v12.558A5.442 5.442 0 0 1 51.558 116H8.442A5.442 5.442 0 0 1 3 110.558V98Z"/><path fill="#ACB3C1" d="M16.781 111v-1.493h1.494V111H16.78Zm3.035-7.791h2.875c.648 0 1.142.05 1.482.149a2.61 2.61 0 0 1 1.175.717c.326.344.574.766.744 1.265.17.496.255 1.109.255 1.839 0 .641-.08 1.194-.24 1.658-.194.567-.472 1.026-.834 1.376-.272.266-.64.473-1.105.622-.347.11-.811.165-1.392.165h-2.96v-7.791Zm1.573 1.318v5.16h1.174c.44 0 .757-.024.951-.074.256-.064.466-.172.633-.324.17-.153.308-.402.414-.75.107-.35.16-.827.16-1.429 0-.602-.053-1.065-.16-1.387-.106-.323-.255-.574-.446-.755a1.496 1.496 0 0 0-.728-.366c-.22-.05-.65-.075-1.291-.075h-.707Zm5.978 2.625c0-.793.119-1.459.356-1.998.178-.397.418-.753.723-1.068a3.059 3.059 0 0 1 1.01-.701c.485-.206 1.045-.309 1.68-.309 1.147 0 2.065.356 2.752 1.069.69.712 1.036 1.702 1.036 2.97 0 1.258-.342 2.243-1.025 2.955-.684.709-1.598 1.063-2.743 1.063-1.158 0-2.08-.353-2.763-1.058-.684-.708-1.026-1.683-1.026-2.923Zm1.621-.053c0 .882.204 1.552.611 2.009.408.454.925.68 1.552.68s1.14-.225 1.541-.675c.404-.453.606-1.132.606-2.035 0-.893-.197-1.559-.59-1.998-.39-.439-.909-.659-1.557-.659-.648 0-1.17.223-1.568.669-.396.443-.595 1.113-.595 2.009Zm12.154 1.037 1.525.483c-.234.85-.623 1.483-1.169 1.897-.542.411-1.231.617-2.067.617-1.035 0-1.885-.353-2.551-1.058-.666-.708-1-1.675-1-2.901 0-1.297.336-2.303 1.005-3.019.67-.719 1.55-1.079 2.642-1.079.953 0 1.727.282 2.322.845.354.333.62.812.797 1.435l-1.557.372c-.092-.404-.285-.723-.58-.956-.29-.234-.644-.351-1.062-.351-.578 0-1.047.207-1.409.622-.357.414-.536 1.086-.536 2.014 0 .985.177 1.686.531 2.104.354.418.815.627 1.382.627.418 0 .778-.133 1.079-.398.3-.266.517-.684.648-1.254Z"/><g filter="url(#e)"><path fill="url(#f)" fill-rule="evenodd" d="M145.492 138.12c-.649-.568-1.66-.065-1.6.795l1.66 23.738c.059.84 1.09 1.208 1.668.595l6.301-6.689 9.868-.595c.862-.052 1.228-1.124.578-1.692l-18.475-16.152Z" clip-rule="evenodd"/><path stroke="#fff" stroke-width="1.933" d="m153.463 155.594-.382.023-.263.279-6.302 6.69-1.66-23.739 18.475 16.152-9.868.595Z"/></g><defs><clipPath id="a"><rect width="109.412" height="155.448" x="45" y="11.85" fill="#fff" rx="3"/></clipPath><clipPath id="c"><path fill="#fff" d="M155 90h23v23h-23z"/></clipPath><linearGradient id="f" x1="163.375" x2="145.981" y1="138.403" y2="162.239" gradientUnits="userSpaceOnUse"><stop stop-color="#0C1986"/><stop offset="1" stop-color="#0070D6"/></linearGradient><filter id="e" width="25.563" height="32.116" x="141.313" y="135.302" color-interpolation-filters="sRGB" filterUnits="userSpaceOnUse"><feFlood flood-opacity="0" result="BackgroundImageFix"/><feColorMatrix in="SourceAlpha" result="hardAlpha" values="0 0 0 0 0 0 0 0 0 0 0 0 0 0 0 0 0 0 127 0"/><feOffset dy="1.288"/><feGaussianBlur stdDeviation="1.288"/><feComposite in2="hardAlpha" operator="out"/><feColorMatrix values="0 0 0 0 0.027451 0 0 0 0 0.0784314 0 0 0 0 0.168627 0 0 0 0.1 0"/><feBlend in2="BackgroundImageFix" result="effect1_dropShadow_3498_47530"/><feColorMatrix in="SourceAlpha" result="hardAlpha" values="0 0 0 0 0 0 0 0 0 0 0 0 0 0 0 0 0 0 127 0"/><feOffset/><feGaussianBlur stdDeviation="1.288"/><feComposite in2="hardAlpha" operator="out"/><feColorMatrix values="0 0 0 0 0.027451 0 0 0 0 0.0784314 0 0 0 0 0.168627 0 0 0 0.12 0"/><feBlend in2="effect1_dropShadow_3498_47530" result="effect2_dropShadow_3498_47530"/><feBlend in="SourceGraphic" in2="effect2_dropShadow_3498_47530" result="shape"/></filter></defs></svg>